<svg version="1.1" xmlns="http://www.w3.org/2000/svg" xmlns:xlink="http://www.w3.org/1999/xlink" width="700" height="700" viewBox="738,215,700,700"><g id="document" fill="none" fill-rule="nonzero" stroke="#000000" stroke-width="0" stroke-linecap="butt" stroke-linejoin="miter" stroke-miterlimit="10" stroke-dasharray="" stroke-dashoffset="0" font-family="none" font-weight="none" font-size="none" text-anchor="none" style="mix-blend-mode: normal"><rect x="738" y="215" width="700" height="700" id="Shape 1 1" vector-effect="non-scaling-stroke"/></g><g fill="none" fill-rule="nonzero" stroke="#000000" stroke-width="20" stroke-linecap="round" stroke-linejoin="round" stroke-miterlimit="10" stroke-dasharray="" stroke-dashoffset="0" font-family="none" font-weight="none" font-size="none" text-anchor="none" style="mix-blend-mode: normal"><g id="stage"><g id="layer1 1"><path d="M1056,755" id="Path 1" fill="none"/><path d="M1261.77054,588.0089c1.79348,-36.64618 0.44039,-43.1801 -10.1712,-78.65908c-13.04977,-43.63082 -39.03235,-83.57338 -75.68266,-110.96467c-36.24073,-27.08519 -78.98268,-43.28239 -123.38482,-50.66101c-16.0548,-2.66794 -33.54948,-5.67563 -49.906,-3.88221c-81.13303,8.89591 -141.89544,84.56842 -154.71822,161.52696c-3.99335,23.96688 -5.88934,48.74215 -3.34752,72.95968c3.44241,32.79806 14.31337,64.86803 25.21306,95.81221c11.94999,33.92597 26.41961,67.79714 56.62122,89.57551c41.96009,30.25739 99.32622,25.29182 146.79736,14.37964c25.30554,-5.81698 50.19804,-13.27719 74.39269,-22.72538c12.90235,-5.03847 26.18228,-10.41665 37.91052,-17.92898c35.35483,-22.64595 54.81837,-61.08779 65.72532,-100.12369z" id="Path 1" fill-opacity="0" fill="#000000"/><path d="M959,521" id="Path 1" fill="none"/><path d="M963,479c-9.22875,3.60827 -17.9198,10.15069 -18.35802,20.89572c-0.63232,15.50426 15.58791,32.50451 31.18548,24.85367c12.78858,-6.273 28.10193,-31.74873 11.12666,-42.61993c-11.17196,-7.15467 -28.68903,-10.17509 -41.50748,-6.20522" id="Path 1" fill-opacity="0" fill="#000000"/><path d="M1162,473c-14.39815,-1.9436 -28.67684,-3.50418 -43.23549,-3.07131c-9.03969,0.26877 -19.37234,0.97574 -27.40342,5.65372c-20.27958,11.81253 -25.9039,41.39629 -8.6348,58.51161c12.56373,12.45186 31.22467,19.14332 48.74987,19.12449c7.42875,-0.00798 17.58699,-1.30926 25.01962,-2.34694c16.19177,-2.26056 33.17543,-3.42911 44.22599,-16.95462c22.68093,-27.76069 -1.94923,-70.61033 -35.69241,-70.40761" id="Path 1" fill-opacity="0" fill="#000000"/><path d="M1163,625c-41.9326,37.20384 -43.0365,-52.01016 -98.64657,-39.59172c-21.90884,4.89252 -43.57136,49.14223 -64.89585,40.4033c-14.84241,-6.08252 -35.58179,-47.95781 -44.92958,-60.62981c-16.57769,-22.47298 -63.28065,59.45155 -65.60178,31.73422" id="Path 1" fill-opacity="0" fill="#000000"/></g></g></g></svg>