<svg version="1.1" xmlns="http://www.w3.org/2000/svg" xmlns:xlink="http://www.w3.org/1999/xlink" width="700" height="700" viewBox="1186,447.5,700,700"><defs><linearGradient x1="1656.25441" y1="794.50114" x2="1657.48313" y2="796.79592" gradientUnits="userSpaceOnUse" id="color-1"><stop offset="0" stop-color="#bbb6cc"/><stop offset="1" stop-color="#abb9ce"/></linearGradient><linearGradient x1="1663.3233" y1="799.35044" x2="1657.00173" y2="787.85473" gradientUnits="userSpaceOnUse" id="color-2"><stop offset="0" stop-color="#958b90"/><stop offset="1" stop-color="#a0aac1"/></linearGradient><linearGradient x1="1531.95169" y1="712.36509" x2="1560.97047" y2="677.34254" gradientUnits="userSpaceOnUse" id="color-3"><stop offset="0" stop-color="#ce777c"/><stop offset="1" stop-color="#ec9788"/></linearGradient><linearGradient x1="1656.25441" y1="794.50114" x2="1657.48313" y2="796.79592" gradientUnits="userSpaceOnUse" id="color-4"><stop offset="0" stop-color="#bbb6cc"/><stop offset="1" stop-color="#abb9ce"/></linearGradient><linearGradient x1="1663.3233" y1="799.35044" x2="1657.00173" y2="787.85473" gradientUnits="userSpaceOnUse" id="color-5"><stop offset="0" stop-color="#958b90"/><stop offset="1" stop-color="#a0aac1"/></linearGradient><linearGradient x1="1531.95169" y1="712.36509" x2="1560.97047" y2="677.34254" gradientUnits="userSpaceOnUse" id="color-6"><stop offset="0" stop-color="#ce777c"/><stop offset="1" stop-color="#ec9788"/></linearGradient></defs><g id="document" fill="#ffffff" fill-rule="nonzero" stroke="#000000" stroke-width="0" stroke-linecap="butt" stroke-linejoin="miter" stroke-miterlimit="10" stroke-dasharray="" stroke-dashoffset="0" font-family="none" font-weight="none" font-size="none" text-anchor="none" style="mix-blend-mode: normal"><rect x="1186" y="319.64286" transform="scale(1,1.4)" width="700" height="500" id="Shape 1 1" vector-effect="non-scaling-stroke"/></g><g fill="none" fill-rule="nonzero" stroke="none" stroke-width="1" stroke-linecap="none" stroke-linejoin="none" stroke-miterlimit="10" stroke-dasharray="" stroke-dashoffset="0" font-family="none" font-weight="none" font-size="none" text-anchor="none" style="mix-blend-mode: normal"><g><g id="stage"><g id="layer1 1"><path d="M1644,639" id="Path 1" fill="none" stroke="#000000" stroke-linecap="round" stroke-linejoin="round"/><g id="Group 1" stroke="none" stroke-linecap="butt" stroke-linejoin="miter"><path d="M1449.87715,659.81616c0.99873,0.36683 1.95967,0.82846 2.90977,1.30515c9.32461,4.67798 18.28945,10.61862 23.46123,20.01305c1.47422,2.67773 2.5084,5.46006 3.46904,8.34814c18.18047,-3.74971 30.8625,-2.12344 48.14209,4.56973c1.81465,-5.77588 4.25742,-10.33447 8.90186,-14.32822c8.18408,-7.03755 22.68574,-12.10916 33.44326,-11.30057c-3.54492,8.4784 -2.42285,17.92107 -4.94238,26.59529c-2.61416,9.00059 -7.72734,13.73789 -15.7248,18.09873c1.32979,2.62969 3.20449,5.05137 4.62539,7.66523c5.55264,10.21436 10.21084,20.89365 12.8666,32.25146c4.91426,-1.24395 10.01367,-1.76689 15.06943,-1.98779c12.71631,-0.55605 26.12256,0.97559 37.52432,7.01514c11.10615,5.88281 20.78701,15.56631 26.48262,26.80078c2.17939,4.29932 3.74121,8.83535 5.15713,13.43086l0.19043,0.05947c3.88037,-2.21191 7.171,-4.76719 9.99551,-8.24414c-2.38271,-1.94736 -3.77637,-4.10801 -4.63916,-7.06699c-2.87871,-9.87187 0.97471,-15.47666 8.40059,-21.7623c1.86797,-1.58115 4.10186,-3.14355 5.25527,-5.36367c1.00781,-1.93887 0.78076,-3.61113 0.11689,-5.59131c2.54004,3.77432 4.81611,7.89316 6.15205,12.25254c1.95293,6.37119 2.83799,13.87412 -0.45059,19.96729c-2.11055,3.90938 -5.21514,6.12656 -9.40283,7.35762c-2.50928,6.86309 -7.71709,12.59795 -13.83076,16.45107c3.05771,17.10527 1.90635,35.25469 -2.54063,52.01162c-0.5959,2.20117 -1.27637,4.37598 -2.04141,6.52441c-0.52031,1.4625 -2.41465,5.36631 -2.48145,6.54316c-0.1043,1.84395 0.03193,3.77168 0.12598,5.61621c0.29736,5.83271 0.95127,11.58047 2.58955,17.20342c0.98438,3.37822 2.33262,6.7002 3.16611,10.10918l0.06387,0.26631c-0.48281,1.7209 -1.28203,3.00498 -2.57021,4.23486c-5.00391,4.77744 -15.46201,7.53105 -22.27588,7.38838c-5.20518,-0.10928 -15.06504,-2.31416 -18.79453,-6.20186c-0.34102,-3.86982 0.33398,-5.72695 2.75596,-8.80518c-0.50889,-8.40322 -1.56738,-15.31934 -3.47402,-23.51045c-2.9666,1.15898 -5.92793,2.29629 -8.93613,3.34482c0.95859,3.35654 3.49336,11.62119 2.72549,14.81367c-0.67617,2.81074 -3.0832,4.86885 -5.47412,6.28154c-6.7043,3.96152 -15.88301,4.25801 -23.25996,2.38213c0.31787,4.14492 1.98662,17.97217 -0.05801,20.92148c-2.71289,3.9123 -11.53066,6.16699 -16.14346,6.89531c-7.1792,1.1335 -17.29131,0.55225 -24.08555,-2.02998c-2.38301,-0.90586 -4.48154,-2.15449 -6.53613,-3.65127c0.21621,-1.82139 0.74209,-3.78779 1.53809,-5.44687c0.72773,-1.51641 1.56123,-2.81104 1.90371,-4.4915c2.12021,-10.40537 -0.44707,-20.59102 -2.28926,-30.78838c-5.01445,-0.47578 -9.86982,-1.39424 -14.78086,-2.49521c0.21416,1.77686 0.65713,3.55313 0.96943,5.31943c0.88623,5.01064 1.89551,10.004 2.73428,15.02139c0.39404,2.35488 0.87393,4.80645 0.95625,7.19473c-0.68457,0.75293 -1.40762,1.4667 -2.16914,2.14131c-7.15635,6.30117 -17.8957,7.65732 -27.09082,7.10186c-5.81748,-0.35156 -14.79404,-1.46924 -18.78691,-5.96572c1.64531,-5.8793 3.05625,-9.6249 6.86865,-14.47354c-0.67471,-2.49492 -1.53369,-4.90928 -2.1375,-7.4335c-2.77969,-11.62002 -3.53672,-23.23184 -3.14766,-35.14014c-1.94531,-2.34639 -3.49482,-4.91602 -5.3625,-7.3002c-11.86201,-1.35879 -25.58584,-4.4332 -35.92324,-10.62803c-6.12891,-3.67295 -11.47412,-8.1416 -15.6997,-13.93682c-0.90826,-1.2457 -1.43086,-2.73896 -2.35512,-3.93691c-0.82304,-1.06699 -2.04899,-1.93564 -3.01043,-2.88955c-2.58498,-2.56436 -4.50237,-6.27627 -5.35503,-9.80127c-1.55112,-6.41191 0.22852,-12.0832 3.56689,-17.59629c-5.37056,-7.82754 -8.48801,-16.37813 -10.23475,-25.67637c-2.83371,-15.08408 -2.0768,-38.56846 6.90765,-51.65801c0.76389,-1.11299 1.94918,-3.22617 3.31822,-3.48193c2.23236,0.49219 1.81503,5.27314 2.00344,6.97734c1.70244,15.4002 8.25647,31.74023 18.85169,43.16133c0.82119,-3.93252 1.96377,-7.81172 3.03809,-11.68096c1.10684,-3.98525 2.20195,-7.98311 3.62695,-11.86934c0.28457,-0.76367 0.57881,-1.52354 0.88271,-2.27959c0.3041,-0.75625 0.61777,-1.5084 0.94102,-2.25645c0.32344,-0.74805 0.65635,-1.4918 0.99873,-2.23125c0.34258,-0.73965 0.69453,-1.47471 1.05586,-2.20518c0.36133,-0.73027 0.73203,-1.45596 1.11211,-2.17705c0.38008,-0.7209 0.76934,-1.43682 1.16777,-2.14775c0.39844,-0.71094 0.80586,-1.4166 1.22227,-2.11699c0.4166,-0.70039 0.84219,-1.39531 1.27676,-2.08477c0.43437,-0.68965 0.87754,-1.37354 1.32949,-2.05166c0.45215,-0.67812 0.91279,-1.35029 1.38193,-2.0165c0.46934,-0.66621 0.94717,-1.32637 1.4335,-1.98047c0.48633,-0.65391 0.98096,-1.30146 1.48389,-1.94268c0.50293,-0.64141 1.01396,-1.27617 1.53311,-1.9043c0.51934,-0.62813 1.04658,-1.24941 1.58174,-1.86387c0.53516,-0.61465 1.07813,-1.22227 1.62891,-1.82285c0.55098,-0.60059 1.10947,-1.19404 1.67549,-1.78037c-3.71338,-2.61914 -6.59824,-6.9126 -8.18877,-11.12783c-3.00234,-7.95645 -1.99395,-17.92395 0.63018,-25.88678c0.81855,-2.48344 1.91396,-4.84365 2.98447,-7.22487z" id="Path 1" fill="#020202"/><path d="M1449.48926,664.3004c0.27012,-0.7788 0.55986,-2.05843 1.19854,-2.58393l0.38203,0.10553c-0.03457,0.42079 -0.04307,0.83104 -0.16963,1.23557l-0.25283,0.10644l-0.07998,0.19992c-0.16465,0.40312 -0.2543,0.77338 -0.64424,1.01013z" id="Path 1" fill="#aab9d0"/><path d="M1451.88779,743.47781c0.35449,0.01377 0.81299,-0.01436 1.11592,0.19834c0.42598,0.29883 0.6958,0.72305 0.74033,1.24248c0.06592,0.7667 -0.22734,1.32451 -0.72773,1.87412c-0.4125,0.07002 -0.78164,0.14092 -1.15312,-0.12012c-0.28213,-0.19834 -0.45791,-0.49658 -0.53438,-0.82881c-0.19453,-0.84785 0.08701,-1.67109 0.55898,-2.36602z" id="Path 1" fill="#ffffff"/><path d="M1447.27939,748.37156c-0.05449,-1.30752 0.63047,-3.12568 1.18887,-4.29844c0.99492,-2.09033 2.59336,-3.90645 4.8542,-4.64678c0.09258,-0.03105 0.18594,-0.05977 0.28008,-0.08613c0.09395,-0.02637 0.18857,-0.05039 0.28389,-0.07207c0.09531,-0.02148 0.19111,-0.04063 0.2874,-0.05742c0.09629,-0.0166 0.19287,-0.03086 0.28975,-0.04277c0.09707,-0.01191 0.19434,-0.02129 0.2918,-0.02812c0.09746,-0.00703 0.19502,-0.01152 0.29268,-0.01348c0.09766,-0.00195 0.19531,-0.00146 0.29297,0.00146c0.09766,0.00313 0.19512,0.00859 0.29238,0.01641c0.09746,0.00781 0.19463,0.01816 0.2915,0.03105c0.09668,0.01289 0.19307,0.02813 0.28916,0.0457c0.09609,0.01777 0.1917,0.03789 0.28682,0.06035c0.09512,0.02266 0.18955,0.04766 0.2833,0.075c0.09375,0.02715 0.18682,0.05674 0.2792,0.08877c0.09219,0.03203 0.18359,0.06641 0.27422,0.10312c0.09062,0.03672 0.18018,0.07568 0.26865,0.11689c0.08867,0.04102 0.17617,0.08437 0.2625,0.13008c2.20781,1.14375 3.72568,3.55459 4.49355,5.85264c-0.06006,-0.07002 -0.12158,-0.13857 -0.18047,-0.20947c-0.43916,-0.5291 -0.7125,-1.21113 -1.05967,-1.80322c-0.74326,-1.26797 -1.78857,-2.77207 -3.11104,-3.47666c-0.48486,-0.25811 -1.0418,-0.36445 -1.54834,-0.57832l0.19687,0.36182l-0.2458,-0.37559c-0.46758,0.44268 -0.53057,0.47402 -1.16631,0.57363l0.10811,0.26455l-0.18721,0.23174l0.38027,0.12979l0.0085,0.20068c-0.38145,0.1749 -0.56162,0.13008 -0.95918,0.0624l-0.15469,-0.16318c0.19541,-0.33633 0.41748,-0.54551 0.35889,-0.94014l-0.3832,-0.28125c-0.32168,0.07002 -0.51592,0.46611 -0.72393,0.35947c-0.30937,-0.15879 -0.43184,-0.27012 -0.77666,-0.16084c-1.91543,0.60791 -3.41309,2.7832 -4.23135,4.50293c-0.5915,1.24248 -1.0292,2.56348 -1.1874,3.93428z" id="Path 1" fill="#302a21"/><path d="M1662.51094,790.29949c0.14326,0.50654 -0.00674,0.76699 -0.25547,1.23545c-1.39482,2.62764 -7.70625,7.5085 -10.44727,8.49697c-0.14854,-0.59121 -0.34893,-1.16221 -0.54551,-1.73877l0.19043,0.05947l0.21299,0.44238c0.1251,0.0416 0.18428,0.07236 0.33135,0.05801c1.73584,-0.16992 6.33984,-4.16367 7.60781,-5.38096c1.03418,-0.99316 1.96641,-2.09033 2.90566,-3.17256z" id="Path 1" fill="url(#color-1)"/><path d="M1407.18396,792.34178l1.0568,1.26826c-2.93628,5.85381 -4.00805,12.0832 -1.89152,18.40869c0.22157,0.6624 0.68344,1.44463 0.63732,2.13896l-0.2492,0.29062c-1.54022,-2.08447 -2.6175,-4.68516 -3.05473,-7.23662c-0.88055,-5.13838 0.50033,-10.64502 3.50133,-14.86992z" id="Path 1" fill="#b6c8de"/><path d="M1451.06982,661.822c8.15303,4.0403 16.47217,8.89386 21.77227,16.54497c-0.03311,0.29326 0.00146,0.13447 -0.12891,0.47051c-0.96621,0.01494 -3.85547,-2.99663 -4.76543,-3.78404c-3.41514,-2.95538 -7.17979,-5.75476 -10.96787,-8.21968c-1.82109,-1.18494 -4.56504,-2.32222 -6.07969,-3.77619c0.12656,-0.40453 0.13506,-0.81478 0.16963,-1.23557z" id="Path 1" fill="#b6c8de"/><path d="M1451.41025,686.65594c1.72383,0.61289 5.34844,5.56816 7.56797,7.06758c1.09775,0.7415 3.1251,1.40332 3.71104,2.59893c0.12187,0.24873 0.1415,0.31758 0.37002,0.45146c-1.00225,1.02129 -2.68945,1.9415 -3.87744,2.79404c-4.30869,-3.5877 -6.49629,-7.49531 -7.77158,-12.91201z" id="Path 1" fill="#c57b7d"/><path d="M1521.08232,883.82889c0.12363,-0.06768 0.28857,-0.2001 0.34131,-0.33838c0.29121,-0.75996 0.28594,-3.77256 0.35361,-4.75811c0.31992,-4.65322 0.57686,-11.33232 1.96436,-15.73213l0.37764,-1.18271c-0.01875,1.91426 0.01924,3.82734 0.11396,5.73926c0.09453,1.91191 0.24561,3.81943 0.45322,5.72256c0.20762,1.90293 0.47139,3.79814 0.79131,5.68564c0.31992,1.8873 0.69541,3.76357 1.12646,5.62881c-1.77598,-0.20244 -3.80801,-0.26924 -5.52187,-0.76494z" id="Path 1" fill="#596574"/><path d="M1580.63262,896.61463c0.83408,-0.02695 1.60635,0.19512 2.31123,0.64072c2.14365,1.35586 3.01787,4.04883 3.54316,6.38672c-1.58027,0.33252 -3.19629,0.44033 -4.80615,0.51094c-1.90547,0.0583 -3.80449,-0.09551 -5.69678,-0.30205c-0.01523,-1.33975 0.04014,-2.45859 0.61348,-3.71074c0.80947,-1.76807 2.25557,-2.86172 4.03506,-3.52559z" id="Path 1" fill="#9fa8b5"/><path d="M1667.63701,780.28436c0.40225,7.04736 -2.84766,13.7959 -7.42646,18.95039c-2.1457,2.41523 -4.63857,4.44287 -7.22139,6.3665l-1.18096,-5.56934c2.74102,-0.98848 9.05244,-5.86934 10.44727,-8.49697c0.24873,-0.46846 0.39873,-0.72891 0.25547,-1.23545c2.27813,-3.11309 4.23574,-6.20068 5.12607,-10.01514z" id="Path 1" fill="url(#color-2)"/><path d="M1614.73564,901.29656c0.18691,-0.01113 0.38789,-0.01494 0.57305,0.00908c0.69053,0.08994 1.25098,0.69199 1.65264,1.21934c2.1167,2.77793 3.01084,7.67607 2.5002,11.07275c-1.24482,-0.30762 -2.45039,-0.67061 -3.66357,-1.08516c-1.6166,-0.62285 -5.26641,-1.89492 -6.04072,-3.47402c-0.44121,-0.89971 -0.21006,-1.9377 0.14502,-2.82275c0.05527,-0.13672 0.11387,-0.27197 0.17578,-0.40576c0.06191,-0.13379 0.12705,-0.26602 0.19541,-0.39668c0.06836,-0.13066 0.13994,-0.25957 0.21475,-0.38672c0.07461,-0.12715 0.15234,-0.25234 0.2332,-0.37559c0.08105,-0.12344 0.16494,-0.24473 0.25166,-0.36387c0.08691,-0.11914 0.17656,-0.23613 0.26895,-0.35098c0.09258,-0.11484 0.18789,-0.22725 0.28594,-0.33721c0.09805,-0.11016 0.19873,-0.21787 0.30205,-0.32314c0.10352,-0.10508 0.20947,-0.20762 0.31787,-0.30762c0.1084,-0.1 0.21914,-0.19727 0.33223,-0.2918c0.11309,-0.09453 0.22852,-0.18633 0.34629,-0.27539c0.11758,-0.08887 0.2373,-0.1748 0.35918,-0.25781c0.12188,-0.08301 0.2457,-0.16299 0.37148,-0.23994c0.12578,-0.07695 0.25332,-0.15078 0.38262,-0.22148c0.12949,-0.0707 0.26064,-0.13818 0.39346,-0.20244c0.13262,-0.06426 0.2668,-0.1252 0.40254,-0.18281z" id="Path 1" fill="#b6c8de"/><path d="M1477.36846,906.45691c0.59619,-0.02871 1.12939,0 1.69453,0.21387c2.22861,0.84346 3.59004,3.38408 4.49004,5.43779c-0.97646,1.99482 -1.63975,3.6252 -1.87236,5.84648c-1.34004,-0.25996 -2.67734,-0.53301 -4.01191,-0.81914c-2.61094,-0.60645 -4.90781,-1.5 -7.09277,-3.06357c0.39111,-1.10537 0.77842,-2.15039 1.37139,-3.16816c1.27061,-2.18057 2.93203,-3.79277 5.42109,-4.44727z" id="Path 1" fill="#9fa8b5"/><path d="M1488.8625,909.09598c0.12422,-0.00967 0.24814,-0.02021 0.37266,-0.02461c1.79971,-0.0668 3.25254,0.6208 4.54189,1.85566c2.08945,2.00098 3.07471,4.6374 3.1459,7.48887c-1.88496,0.16699 -3.75615,0.31787 -5.6499,0.3252c-2.68828,0.03838 -5.59307,-0.13623 -8.24385,-0.58506c0.2707,-1.19414 0.56074,-2.36953 0.99639,-3.51621c0.94307,-2.48174 2.35811,-4.42939 4.83691,-5.54385z" id="Path 1" fill="#9fa8b5"/><path d="M1491.08965,815.4409c0.01436,0.04629 0.03369,0.09111 0.04277,0.13857c0.30352,1.58115 -4.18447,11.06484 -5.24033,12.65684c-1.05645,1.59258 -2.54414,3.25752 -4.52051,3.59619c-2.10557,0.36094 -4.11885,-1.08838 -5.71729,-2.26699c-0.975,-0.80742 -1.92861,-1.61719 -2.83916,-2.49902c7.00283,-3.26924 12.34951,-6.64746 18.27451,-11.62559z" id="Path 1" fill="#ffffff"/><path d="M1628.35283,903.23074c1.46865,-0.0665 2.7085,0.23145 3.8376,1.22607c2.51455,2.21572 2.78525,6.14385 2.91504,9.25547c-2.32441,0.73711 -4.76631,0.92725 -7.18799,1.01426c-1.12891,-0.01328 -2.25488,-0.07852 -3.37793,-0.1957c-1.12285,-0.11738 -2.23799,-0.28623 -3.34541,-0.50654c0.30762,-1.64268 0.70635,-3.20625 1.36289,-4.7502c1.1833,-2.78262 2.95576,-4.89756 5.7958,-6.04336z" id="Path 1" fill="#b6c8de"/><path d="M1608.69053,877.2368c10.64443,-5.03291 20.72168,-12.54785 27.47344,-22.27822l0.45234,1.06289c-0.49482,1.72559 -1.52842,3.40225 -2.45742,4.93711c-5.30947,8.77383 -14.2957,16.90723 -23.18057,21.97207c-0.20391,0.11631 -0.41602,0.22002 -0.62813,0.32051c-0.38965,-2.08096 -0.94863,-4.02627 -1.65967,-6.01436z" id="Path 1" fill="#596574"/><path d="M1453.96846,706.73602c0.72861,-1.03535 1.72939,-1.96406 2.62588,-2.86055c4.78096,-4.78125 10.39336,-8.21777 16.64063,-10.74785c17.17529,-6.95625 37.50088,-4.60312 54.21182,2.53535c-0.19746,0.73799 -0.37002,1.48418 -0.55225,2.22627c-4.57383,-2.57725 -10.05615,-4.17334 -15.18398,-5.18789c-11.4665,-2.26846 -22.06055,-2.22305 -33.39023,0.92813c-5.2793,1.46865 -10.95879,3.81416 -15.51768,6.8584c-2.08652,1.39307 -3.98818,3.03545 -5.94023,4.60576c-0.70547,0.56719 -1.99131,1.94063 -2.89395,1.64238z" id="Path 1" fill="#b6c8de"/><path d="M1535.11318,915.68103c0.47959,-0.03984 1.00664,-0.05273 1.47979,0.03574c1.43496,0.26777 2.57871,1.31807 3.3498,2.50752c1.23193,1.89961 2.38184,5.12812 1.96582,7.39893c-0.30439,1.6623 -1.07168,3.31787 -1.44463,5.00273c-1.68135,-0.29941 -3.35508,-0.59355 -5.01152,-1.01338c-2.654,-0.61318 -5.81572,-1.81348 -7.92305,-3.58271c0.35889,-1.99336 0.96914,-3.93281 1.98398,-5.69443c1.28936,-2.23857 3.06064,-3.95742 5.5998,-4.65439z" id="Path 1" fill="#ffffff"/><path d="M1550.96895,918.93006c1.47715,0.02314 2.70088,0.54492 3.80479,1.529c2.75186,2.45303 3.94951,6.35918 4.21055,9.91875c-2.92529,0.56982 -5.79697,0.93018 -8.77822,1.02451c-2.71777,0.03789 -5.4208,-0.14365 -8.10908,-0.54463c0.21914,-2.91533 1.50029,-5.79082 3.19365,-8.14336c1.44346,-2.00537 3.17402,-3.36973 5.67832,-3.78428z" id="Path 1" fill="#ffffff"/><path d="M1547.22305,714.13641l0.7207,-0.3249c2.32705,1.02832 11.41143,20.98828 12.91406,24.85869c7.32217,18.86104 12.95713,44.51191 4.40742,63.80566c-3.51035,7.92188 -8.50723,14.48438 -15.01465,20.18057c-0.121,-0.25605 -0.24434,-0.44531 -0.14414,-0.73975c0.18105,-0.53291 1.62041,-1.85713 2.07129,-2.35488c6.9252,-7.64736 12.1541,-17.24883 14.03936,-27.45234c2.22539,-12.0457 1.57178,-24.36094 -1.26504,-36.25576c-0.42598,-1.78564 -1.00459,-3.53408 -1.50059,-5.30127c-2.39004,-8.51836 -4.86592,-15.17812 -8.78408,-23.14102c-1.5208,-3.09053 -2.93877,-6.4207 -4.69951,-9.37295c-0.80742,-1.35381 -1.85068,-2.60068 -2.74482,-3.90205z" id="Path 1" fill="#b6c8de"/><path d="M1471.76719,859.11082c1.69775,1.84688 3.37793,3.70723 5.22744,5.40498c9.46143,8.68594 21.20713,14.64199 33.41572,18.38643c0.49141,2.14414 0.91318,4.30195 1.26533,6.47344c-2.09561,-0.34893 -4.21582,-1.05264 -6.22588,-1.73203c-9.0665,-3.06475 -18.06035,-7.82725 -25.20498,-14.24941c-1.92803,-1.73291 -6.65332,-6.93457 -8.32178,-7.97139l-0.1043,1.21992c-0.30938,-2.45215 -0.1125,-5.06689 -0.05156,-7.53193z" id="Path 1" fill="#596574"/><path d="M1449.48926,664.3004l0.43389,0.07365c0.38994,-0.23675 0.47959,-0.607 0.64424,-1.01013l0.07998,-0.19992l0.25283,-0.10644c1.51465,1.45397 4.25859,2.59125 6.07969,3.77619c3.78809,2.46492 7.55273,5.2643 10.96787,8.21968c0.90996,0.78741 3.79922,3.79898 4.76543,3.78404c0.13037,-0.33604 0.0958,-0.17725 0.12891,-0.47051c2.6001,3.49658 4.27881,7.42617 5.6792,11.51865c-1.80937,0.48457 -3.56396,1.01748 -5.29248,1.74609c-0.94717,-3.19717 -2.02383,-6.31641 -3.75117,-9.18926c-3.5918,-5.97357 -11.58018,-12.2453 -17.47646,-15.93478c-0.53232,1.42116 -0.81035,2.99106 -1.12822,4.47363c-1.18066,5.50603 -1.78506,10.67979 -0.65859,16.26437c1.02744,5.09297 3.4708,10.16426 7.88496,13.1165c-0.93574,0.98643 -1.9957,1.87119 -2.95078,2.84824c-3.36943,-3.09785 -5.9332,-6.33809 -7.50293,-10.69307c-2.56289,-7.10859 -1.93535,-14.65371 -0.18838,-21.86493c0.51738,-2.13533 1.0916,-4.36313 2.03203,-6.35203z" id="Path 1" fill="#9fa8b5"/><path d="M1451.99355,761.02898c-1.03359,0.48223 -2.19229,0.82031 -3.34248,0.76494c-1.44492,-0.06943 -2.66543,-0.80244 -3.58652,-1.88994c-3.02871,-3.57656 -3.53262,-9.52207 -3.09346,-13.98223c0.51357,-5.21631 2.67012,-11.09414 6.87305,-14.46299c1.79619,-1.43965 4.36201,-2.57168 6.68994,-2.25264c2.31064,0.31699 4.16836,1.78008 5.51162,3.6126c3.53232,4.81934 3.29385,11.10469 2.44131,16.71064c-0.38555,-1.2873 -0.5666,-2.6543 -1.12471,-3.88154c-0.76787,-2.29805 -2.28574,-4.70889 -4.49355,-5.85264c-0.08633,-0.0457 -0.17383,-0.08906 -0.2625,-0.13008c-0.08848,-0.04121 -0.17803,-0.08018 -0.26865,-0.11689c-0.09062,-0.03672 -0.18203,-0.07109 -0.27422,-0.10312c-0.09238,-0.03203 -0.18545,-0.06162 -0.2792,-0.08877c-0.09375,-0.02734 -0.18818,-0.05234 -0.2833,-0.075c-0.09512,-0.02246 -0.19072,-0.04258 -0.28682,-0.06035c-0.09609,-0.01758 -0.19248,-0.03281 -0.28916,-0.0457c-0.09687,-0.01289 -0.19404,-0.02324 -0.2915,-0.03105c-0.09727,-0.00781 -0.19473,-0.01328 -0.29238,-0.01641c-0.09766,-0.00293 -0.19531,-0.00342 -0.29297,-0.00146c-0.09766,0.00195 -0.19521,0.00645 -0.29268,0.01348c-0.09746,0.00684 -0.19473,0.01621 -0.2918,0.02812c-0.09688,0.01191 -0.19346,0.02617 -0.28975,0.04277c-0.09629,0.0168 -0.19209,0.03594 -0.2874,0.05742c-0.09531,0.02168 -0.18994,0.0457 -0.28389,0.07207c-0.09414,0.02637 -0.1875,0.05508 -0.28008,0.08613c-2.26084,0.74033 -3.85928,2.55645 -4.8542,4.64678c-0.5584,1.17275 -1.24336,2.99092 -1.18887,4.29844c-0.12627,0.87158 -0.19219,1.71182 -0.17959,2.59395c0.06592,4.59053 1.72119,7.00693 4.89375,10.06348z" id="Path 1" fill="#ffffff"/><path d="M1452.52676,668.35005c5.8957,3.74271 12.97529,9.19573 16.39131,15.34339c1.45664,2.6209 2.34639,5.45215 3.18838,8.31533c-3.12451,1.41563 -6.12598,2.96426 -9.04717,4.76514c-0.22852,-0.13389 -0.24814,-0.20273 -0.37002,-0.45146c-0.58594,-1.19561 -2.61328,-1.85742 -3.71104,-2.59893c-2.21953,-1.49941 -5.84414,-6.45469 -7.56797,-7.06758c-1.14287,-6.29648 -0.05068,-12.13078 1.1165,-18.30589z" id="Path 1" fill="#da8c8a"/><path d="M1671.85576,754.49812c0.5291,0.53086 0.92227,1.51904 1.24893,2.19375c3.27012,6.75469 5.36338,15.96592 2.77822,23.23975c-1.65908,4.66787 -4.54541,7.58965 -8.91855,9.69609c1.03682,-3.53496 2.19873,-8.30596 1.16953,-11.93496c-0.08848,-0.31201 -0.18018,-0.59414 -0.4752,-0.74561c-0.40752,0.7415 -0.48193,2.12695 -0.68379,2.98623c-1.13408,3.56543 -2.9291,6.68379 -5.19492,9.63223c-0.18457,-0.17109 -0.36533,-0.34717 -0.5291,-0.53906c-1.87207,-2.19287 -3.08848,-5.68242 -3.5918,-8.48584c-2.85234,-15.88887 13.46748,-17.51865 14.19668,-26.04258z" id="Path 1" fill="#77482e"/><path d="M1597.20322,881.41307l0.16904,0.04365c0.07031,0.11074 0.10547,0.15439 0.15117,0.29355c0.33105,1.0084 0.43066,2.24355 0.65684,3.29033c0.61611,2.85557 2.61182,9.39551 1.16484,11.91299c-2.0124,3.50039 -7.61484,5.42725 -11.2377,6.54434c-0.71016,-2.47646 -1.54658,-4.9248 -3.45117,-6.75791c-1.00693,-0.96885 -2.31094,-1.64971 -3.73594,-1.59492c-1.85156,0.07119 -3.2335,1.27266 -4.43818,2.54502c-1.35527,1.80234 -1.604,3.63076 -1.7874,5.81309l-2.22012,-0.525c-0.4251,-2.32441 -0.52734,-4.74873 -0.70576,-7.10537c-0.26719,-3.53291 -0.53936,-7.07373 -0.64043,-10.61572c4.0459,-0.26133 8.10322,-0.40459 12.1292,-0.90762c4.75459,-0.59414 9.33018,-1.67842 13.94561,-2.93643z" id="Path 1" fill="#596574"/><path d="M1572.38232,872.49656l0.11865,0.17344c1.47275,0.40313 8.52275,-0.01494 10.48359,-0.13096c13.1168,-0.7752 27.07764,-4.12324 38.87725,-9.96797c2.87842,-1.42588 5.75303,-2.9168 8.54561,-4.50439c1.42031,-0.80742 2.83828,-1.875 4.31807,-2.53477c0.0375,-0.0167 0.07559,-0.03252 0.11367,-0.04863c-1.7168,2.56758 -4.03271,4.80996 -6.31201,6.88418c-10.82988,9.85488 -25.12148,16.71533 -39.44092,19.56709c-2.9625,0.58066 -5.94541,1.02334 -8.94873,1.32803c-3.00352,0.30449 -6.01465,0.46982 -9.0334,0.496c0.11572,-3.7459 0.2748,-7.63389 1.27822,-11.26201z" id="Path 1" fill="#717e8c"/><path d="M1471.81875,866.64275l0.1043,-1.21992c1.66846,1.03682 6.39375,6.23848 8.32178,7.97139c7.14463,6.42217 16.13848,11.18467 25.20498,14.24941c2.01006,0.67939 4.13027,1.38311 6.22588,1.73203c1.37578,7.01699 2.5543,14.06699 3.53555,21.15c-0.28203,0.26094 -0.56895,0.51631 -0.86074,0.76611c-0.2916,0.2498 -0.58799,0.49395 -0.88916,0.73242c-0.30117,0.23848 -0.60684,0.47109 -0.91699,0.69785c-0.30996,0.22656 -0.62432,0.44717 -0.94307,0.66182c-0.31855,0.21465 -0.64111,0.42314 -0.96768,0.62549c-0.32656,0.20215 -0.65684,0.39805 -0.99082,0.5877c-0.33418,0.18945 -0.67187,0.37246 -1.01309,0.54902c-0.34102,0.17676 -0.68535,0.34678 -1.03301,0.51006c-0.34766,0.16328 -0.69834,0.31992 -1.05205,0.46992c-0.35371,0.1498 -0.71016,0.29277 -1.06934,0.42891c-0.35918,0.13633 -0.7208,0.26563 -1.08486,0.38789c-0.36426,0.12227 -0.73066,0.2375 -1.09922,0.3457c-0.36855,0.1082 -0.73906,0.20928 -1.11152,0.30322c-0.37246,0.09395 -0.74658,0.18076 -1.12236,0.26045c-0.37578,0.07969 -0.75293,0.15205 -1.13145,0.21709c-0.37852,0.06504 -0.7582,0.12285 -1.13906,0.17344c-0.5874,-3.40781 -1.81553,-6.8083 -4.6043,-9.03105c-1.40537,-1.12031 -3.22734,-1.91514 -5.0543,-1.68105c-2.09854,0.26865 -3.39844,1.68574 -4.64443,3.24229c-0.60352,-1.47217 -1.32246,-2.86318 -2.47734,-3.98438c-1.15723,-1.12324 -2.66748,-1.81729 -4.29756,-1.75254c-2.20195,0.0876 -3.72246,1.30371 -5.17441,2.80635c1.12324,-2.8377 2.89014,-5.25176 4.8668,-7.54775c-0.6041,-2.30273 -1.46426,-4.53164 -2.03906,-6.85078c-0.53594,-2.19336 -1.01221,-4.39951 -1.42881,-6.61846c-0.4166,-2.21914 -0.77285,-4.44785 -1.06875,-6.68613c-0.29609,-2.23828 -0.53135,-4.48301 -0.70576,-6.73418c-0.17441,-2.25098 -0.28779,-4.50508 -0.34014,-6.7623z" id="Path 1" fill="#717e8c"/><path d="M1636.61631,856.02146c2.34141,6.16025 3.36182,9.27158 8.20869,14.07305c-1.13086,4.33096 0.71045,18.59062 1.98457,23.37158c0.54463,2.04463 3.45117,10.18887 3.28066,11.45684c-0.28154,2.09268 -2.90537,3.9375 -4.5999,4.92979c-0.6918,0.39746 -1.39639,0.7708 -2.11377,1.12002c-0.71758,0.34902 -1.44619,0.67314 -2.18584,0.97236c-0.73965,0.29902 -1.48867,0.57246 -2.24707,0.82031c-0.7584,0.24785 -1.52441,0.46934 -2.29805,0.66445c-0.12656,-3.50068 -0.90527,-7.60283 -3.58008,-10.10947c-1.15518,-1.08223 -2.57402,-1.68662 -4.16807,-1.60283c-2.13018,0.11162 -3.99023,1.39893 -5.34697,2.96865c-1.23486,1.42852 -2.09648,3.16787 -2.64902,4.96641c-0.52676,-2.94756 -1.31045,-7.53252 -4.0043,-9.32725c-0.74619,-0.49717 -1.6333,-0.62373 -2.50518,-0.43506c-0.75967,0.16436 -1.48213,0.57891 -2.16885,0.93311c0.25459,-6.10137 -0.74678,-11.60742 -1.87295,-17.57227c0.21211,-0.10049 0.42422,-0.2042 0.62813,-0.32051c8.88486,-5.06484 17.87109,-13.19824 23.18057,-21.97207c0.929,-1.53486 1.9626,-3.21152 2.45742,-4.93711z" id="Path 1" fill="#717e8c"/><path d="M1405.20451,713.04861c0.27788,-0.31816 0.39167,-0.54023 0.80227,-0.6624l0.08643,0.11514l-0.23382,0.03516l-0.03032,0.07002l0.34913,0.20186c1.90901,14.67129 5.56937,28.74814 13.81438,41.22187c2.6042,3.93926 5.63584,7.7376 9.38877,10.64736c0.60801,0.46211 1.2333,0.89951 1.87588,1.31221c0.64258,0.4127 1.30039,0.79941 1.97344,1.16016c0.67324,0.36055 1.35957,0.69404 2.05898,1.00049c0.69961,0.30645 1.41016,0.58477 2.13164,0.83496c0.98555,0.3457 2.40791,0.40078 3.25518,0.98438c0.51094,0.35186 0.56221,0.79219 0.65596,1.36436c0.00879,0.04219 0.01816,0.08408 0.02637,0.12627c0.91816,4.75342 -0.8502,9.25664 -3.51064,13.14639c-3.97178,5.80752 -10.24043,10.70156 -17.27637,11.98418c-2.90918,0.52998 -5.9647,0.18545 -8.42437,-1.55537c-1.70373,-1.20586 -3.05396,-2.86523 -4.31672,-4.50732c-5.84194,-7.59756 -9.00354,-17.1252 -10.559,-26.504c-2.57288,-15.51357 -1.49165,-37.78564 7.93283,-50.97568z" id="Path 1" fill="#fdc16c"/><path d="M1405.20451,713.04861c0.27788,-0.31816 0.39167,-0.54023 0.80227,-0.6624l0.08643,0.11514l-0.23382,0.03516l-0.03032,0.07002l0.34913,0.20186c1.90901,14.67129 5.56937,28.74814 13.81438,41.22187c2.6042,3.93926 5.63584,7.7376 9.38877,10.64736c0.60801,0.46211 1.2333,0.89951 1.87588,1.31221c0.64258,0.4127 1.30039,0.79941 1.97344,1.16016c0.67324,0.36055 1.35957,0.69404 2.05898,1.00049c0.69961,0.30645 1.41016,0.58477 2.13164,0.83496c0.98555,0.3457 2.40791,0.40078 3.25518,0.98438c0.51094,0.35186 0.56221,0.79219 0.65596,1.36436c-0.4459,0.22471 -0.83994,0.36211 -1.3418,0.39902c-4.37432,0.32021 -9.27158,-3.29561 -12.36914,-5.98359c-13.09081,-11.36074 -19.74899,-28.36992 -21.88409,-45.20771c-0.31816,-2.50898 -0.35373,-4.97988 -0.53288,-7.49326z" id="Path 1" fill="#fee3a5"/><path d="M1567.96816,756.49939c0.02842,-0.37559 0.03428,-0.73389 0.02373,-1.11064l0.06328,-0.01992c1.06523,1.5082 1.61836,3.3375 2.29951,5.04141c4.68896,11.72578 5.56816,25.22344 3.43184,37.59258c-3.21299,18.60557 -12.98613,33.42393 -28.39307,44.2752c-6.74736,4.75225 -13.6749,8.49229 -21.34395,11.54033c0.17783,0.91787 0.2499,3.22793 0.83584,3.84199c-0.33281,1.35557 -0.65391,2.76445 -0.76611,4.15723l-0.37764,1.18271c-1.3875,4.3998 -1.64443,11.07891 -1.96436,15.73213c-0.06768,0.98555 -0.0624,3.99814 -0.35361,4.75811c-0.05273,0.13828 -0.21768,0.2707 -0.34131,0.33838c-13.41387,-2.36074 -26.17676,-7.48096 -37.14961,-15.60762c-2.33936,-1.73262 -4.64531,-3.52383 -6.72012,-5.57168c-3.86777,-3.81826 -7.05996,-8.21807 -10.28584,-12.57305c8.68008,0.7998 17.60127,0.16084 26.2166,-1.0333c24.9,-3.45146 51.32754,-14.47148 66.83467,-35.01914c10.03594,-13.29785 12.31318,-28.44814 10.24658,-44.68184c-0.55137,-4.33037 -1.65264,-8.5415 -2.25645,-12.84287z" id="Path 1" fill="#717e8c"/><path d="M1567.41504,754.48728c4.66816,-1.22256 9.59004,-1.68896 14.39971,-1.91016c13.73496,-0.63135 27.68145,1.24277 39.72275,8.30156c15.11455,8.86055 24.81855,23.61533 29.17559,40.36816c4.71709,18.13857 2.91768,41.36982 -2.44482,59.221c-0.9873,3.28652 -1.97051,6.51533 -3.44326,9.62666c-4.84688,-4.80146 -5.86729,-7.91279 -8.20869,-14.07305l-0.45234,-1.06289c3.16729,-5.4041 5.43809,-11.66689 5.78086,-17.96689c0.05303,-0.975 0.16494,-1.99717 0.05098,-2.96689l-0.12451,0.05918c-0.39287,1.59141 -0.31436,3.47432 -0.57305,5.11904c-0.76494,4.86299 -3.20801,12.63691 -6.45908,16.28027c-0.03809,0.01611 -0.07617,0.03193 -0.11367,0.04863c-1.47979,0.65977 -2.89775,1.72734 -4.31807,2.53477c-2.79258,1.5876 -5.66719,3.07852 -8.54561,4.50439c-11.79961,5.84473 -25.76045,9.19277 -38.87725,9.96797c-1.96084,0.11602 -9.01084,0.53408 -10.48359,0.13096l-0.11865,-0.17344c0.65098,-2.71348 1.47949,-5.31064 2.5418,-7.89082c-10.61514,13.98164 -1.84102,42.64482 -3.0583,59.28311c-2.69795,3.46523 -7.25127,5.01885 -11.35342,6.07295c-0.13271,-0.92197 -0.25547,-1.85537 -0.45234,-2.7665c-0.70078,-3.24492 -2.62529,-7.02627 -5.53037,-8.82305c-1.45283,-0.89854 -3.18662,-1.28936 -4.86035,-0.85166c-2.77734,0.72627 -4.87617,3.18662 -6.28213,5.55117c-0.44238,-1.93037 -1.01074,-3.81563 -2.08066,-5.50137c-0.98877,-1.55859 -2.39648,-2.89834 -4.26064,-3.26865c-2.18848,-0.43477 -4.20088,0.45322 -5.95342,1.67227c0.35508,-1.97783 0.42773,-4.0415 0.48076,-6.04805c0.30967,-11.77676 -3.10166,-22.93711 -5.03467,-34.43115c-0.9999,-5.94346 -1.35264,-11.74014 -1.48301,-17.74658l-0.17021,-0.08789c-0.58594,-0.61406 -0.65801,-2.92412 -0.83584,-3.84199c7.66904,-3.04805 14.59658,-6.78809 21.34395,-11.54033c15.40693,-10.85127 25.18008,-25.66963 28.39307,-44.2752c2.13633,-12.36914 1.25713,-25.8668 -3.43184,-37.59258c-0.68115,-1.70391 -1.23428,-3.5332 -2.29951,-5.04141l-0.06328,0.01992c0.01055,0.37676 0.00469,0.73506 -0.02373,1.11064z" id="Path 1" fill="#9fa8b5"/><path d="M1526.34404,711.66463c0.26602,-2.8207 0.3041,-5.64844 0.62988,-8.46826c0.99229,-8.58662 3.99668,-17.28955 10.83311,-22.94414c7.8123,-6.46172 20.20283,-10.62762 30.3252,-10.54137c-0.86543,3.05897 -1.61426,6.12387 -2.06777,9.27369c-0.52705,3.66152 -0.69229,7.36787 -1.26387,11.02266c-1.5627,9.9876 -6.30234,16.77451 -15.14209,21.68232c-3.98174,2.21074 -8.10176,3.37383 -12.61201,3.92988c-1.44521,0.17812 -2.92207,0.23115 -4.35645,0.45996c4.16543,0.98174 10.73672,0.00322 14.53301,-1.94297c0.89414,1.30137 1.9374,2.54824 2.74482,3.90205c1.76074,2.95225 3.17871,6.28242 4.69951,9.37295c3.91816,7.96289 6.39404,14.62266 8.78408,23.14102c0.496,1.76719 1.07461,3.51563 1.50059,5.30127c2.83682,11.89482 3.49043,24.21006 1.26504,36.25576c-1.88525,10.20352 -7.11416,19.80498 -14.03936,27.45234c-0.45088,0.49775 -1.89023,1.82197 -2.07129,2.35488c-0.1002,0.29443 0.02314,0.48369 0.14414,0.73975c-1.87266,2.42666 -9.21475,7.38311 -11.99209,9.10283c-4.50791,2.79141 -9.36211,5.11787 -14.24473,7.17188c-22.51729,9.47256 -48.62578,12.85488 -72.54785,7.19795c-13.92275,-3.29238 -29.45127,-9.73564 -37.30869,-22.46133c3.55166,2.18672 6.99111,4.33301 10.92188,5.80635c9.72686,3.6457 21.51475,4.20234 31.69365,2.45713c3.08086,-0.52822 6.09639,-1.36289 9.07881,-2.28779c2.13896,-0.66357 4.30283,-1.321 6.34688,-2.24414c0.21328,0.37266 0.44502,0.72451 0.71602,1.05791c1.6957,2.08682 4.63418,4.53018 7.42617,4.72441c1.59082,0.11074 3.02549,-0.47578 4.21729,-1.51055c3.50625,-3.04453 5.48262,-9.14561 6.71309,-13.52256c0.30615,-1.08896 0.70605,-2.25146 0.7752,-3.38262c2.67363,-2.76797 5.2292,-5.6543 7.8167,-8.50283c1.35908,-1.49619 2.74863,-3.51152 4.44756,-4.60371c0.10391,0.04043 0.20742,0.08203 0.31055,0.1248c2.40029,1.00166 3.54785,2.06836 4.54248,4.49121c-0.12568,-1.70859 -0.43916,-3.10518 -1.71357,-4.36406c-1.32217,-1.30576 -3.1582,-1.88584 -4.99189,-1.83457c-2.77002,0.07734 -5.06982,1.46484 -6.91201,3.43945c2.21455,-1.44697 4.21289,-2.08945 6.86309,-2.15098c-7.76924,9.30176 -13.69014,16.05762 -24.5458,21.94805c-14.24648,7.72998 -33.12773,10.21172 -48.71719,5.5623c-6.97178,-2.07949 -13.42764,-5.30801 -18.81243,-10.26387c-1.29715,-1.19355 -2.75104,-2.60156 -3.59631,-4.16338l0.2492,-0.29062c0.04611,-0.69434 -0.41575,-1.47656 -0.63732,-2.13896c-2.11652,-6.32549 -1.04476,-12.55488 1.89152,-18.40869c1.6921,1.70039 3.646,3.09668 5.94647,3.83848c4.28719,1.38223 8.94539,0.02842 12.80057,-1.99512c6.30322,-3.3085 12.68379,-9.90908 14.80957,-16.80938c1.02305,-3.32139 1.03301,-7.154 -0.59648,-10.27588c7.68691,0.52617 15.5915,4.1001 22.41621,7.49736c1.93652,0.96387 3.80713,2.07187 5.7709,2.97715c-6.80068,-5.19932 -15.11543,-9.13008 -23.4876,-10.94561c0.78809,-0.4374 1.58672,-0.86309 2.3584,-1.32861c12.64922,-7.62949 21.85254,-23.88369 27.88711,-36.94746c0.50215,-1.08662 2.98916,-6.49805 2.98564,-7.26064c-0.00059,-0.09492 -0.02578,-0.18779 -0.03867,-0.28154l0.13564,-0.02783l-0.13477,0.029l0.16992,-0.21797l-0.00527,0.07441c-0.37529,0.24023 -3.72656,7.63711 -4.29873,8.76768c-3.11279,6.15029 -6.79658,12.17637 -10.60811,17.91768c0.66738,-3.7708 0.72744,-7.80674 -0.40957,-11.49609c-0.96973,-3.14766 -2.88662,-6.36885 -5.90742,-7.92246c-1.99775,-1.02773 -3.90674,-1.08252 -6.029,-0.37529c-3.80684,1.26855 -6.36768,4.39893 -8.11963,7.8958c-2.89922,5.7876 -3.73652,13.39805 -1.66143,19.58203c0.74766,2.22686 2.14951,4.72148 4.35762,5.75947c2.28369,1.07344 4.18857,0.28887 6.36123,-0.52471c-2.11846,1.4874 -6.82998,5.27285 -9.10254,5.76943c-1.03799,0.22676 -2.06982,-0.31084 -3.07822,-0.18955c-0.5373,0.06475 -1.17158,0.39463 -1.67461,0.59766c-2.99062,-0.23496 -8.59834,-3.83174 -10.64297,-6.0665c1.07324,-4.48301 2.23984,-8.9415 3.4998,-13.37549c3.76787,-13.72764 7.11592,-22.43408 15.79629,-33.94307c1.94648,-2.58076 3.90791,-5.33291 6.22734,-7.59697c0.90264,0.29824 2.18848,-1.0752 2.89395,-1.64238c1.95205,-1.57031 3.85371,-3.2127 5.94023,-4.60576c4.55889,-3.04424 10.23838,-5.38975 15.51768,-6.8584c11.32969,-3.15117 21.92373,-3.19658 33.39023,-0.92813c5.12783,1.01455 10.61016,2.61064 15.18398,5.18789c-0.94893,4.50615 -1.46104,9.21709 -0.55049,13.77539z" id="Path 1" fill="#9fa8b5"/><path d="M1456.87412,710.05535c1.42617,0.08203 2.93086,0.12217 4.07725,1.1001c1.64326,1.40156 1.76426,4.25361 1.90195,6.24844c-4.34209,-0.9126 -8.29131,0.04014 -12.29004,1.74463l-0.15586,0.06504c-1.41357,0.57803 -2.69971,1.3957 -4.00811,2.17646l-0.1667,-0.12627c-0.03018,-0.14971 -0.04746,-0.20918 -0.05918,-0.35273c-0.17402,-2.15098 1.19033,-4.85449 2.5125,-6.49131c2.02676,-2.50957 5.01563,-4.00781 8.18818,-4.36436z" id="Path 1" fill="#020202"/><path d="M1510.41299,715.8951c0.48301,-0.05293 0.96738,-0.07344 1.45313,-0.06152c3.104,0.05889 6.57217,1.49736 8.70732,3.77256c2.69736,2.87432 3.29063,6.66797 3.17666,10.45928c-1.01191,-0.72344 -2.03359,-1.43301 -3.06504,-2.12871c-3.22559,-2.09004 -6.74912,-3.65889 -10.32012,-5.0543c-1.71914,-0.67178 -3.49014,-1.25303 -5.1624,-2.03584c1.1335,-2.20107 2.7917,-4.15312 5.21045,-4.95146z" id="Path 1" fill="#020202"/><path d="M1467.74824,790.46648c1.0459,-0.01992 1.91338,0.15088 2.83623,0.6627c2.21807,1.23018 3.55225,3.88711 4.19531,6.25518c1.01309,3.73154 0.87012,8.39854 -1.11563,11.79961c-1.06729,1.82783 -2.50254,2.91387 -4.54365,3.46025c-1.27295,-0.10693 -2.24297,-0.27715 -3.3457,-1.00078c-2.36602,-1.55303 -3.72598,-4.44551 -4.24102,-7.14727c-0.68437,-3.59062 -0.37383,-8.05225 1.74434,-11.14746c1.12383,-1.64238 2.53916,-2.52891 4.47012,-2.88223z" id="Path 1" fill="#020202"/><path d="M1467.66885,791.89676c0.7415,0.0208 1.37051,0.14473 2.02559,0.51035c2.01123,1.12266 3.14209,3.5127 3.71631,5.65488c0.86719,3.23467 0.74531,7.53545 -1.02979,10.46924c-0.82939,1.37109 -1.86006,2.28984 -3.42832,2.68008c-0.51475,-0.00293 -0.94102,-0.06562 -1.41621,-0.27891c-1.89639,-0.85107 -3.16318,-2.67686 -3.90264,-4.56123c-1.26094,-3.21416 -1.27529,-7.49912 0.12305,-10.67344c0.82764,-1.87852 2.02441,-3.05537 3.91201,-3.80098z" id="Path 1" fill="#424452"/><path d="M1561.13291,675.6244c0.37998,-0.04078 0.55107,-0.11988 0.90293,0.06164c-0.24902,1.84685 -0.65215,3.66853 -0.9123,5.51511c-1.01572,7.20527 -1.75459,15.67324 -6.36768,21.6c-3.45469,4.43789 -9.07412,7.61426 -14.44893,9.10107c-2.7999,0.77461 -5.63525,1.15371 -8.51045,1.50029c-0.24141,-0.01465 -0.40254,-0.04307 -0.62402,-0.1415c-0.13008,-0.29531 -0.21006,-0.5502 -0.26543,-0.86953c-1.21377,-7.00605 1.80527,-17.90625 5.8749,-23.59014c5.74512,-8.02471 14.94229,-11.60039 24.35098,-13.17694z" id="Path 1" fill="#020202"/><path d="M1560.81064,676.77688l0.14854,0.01729l0.0917,0.23921c-1.91865,8.09561 -1.61924,17.71582 -6.68467,24.73711c-3.79014,5.25352 -10.0251,8.40264 -16.22139,9.83232c-2.08594,0.48135 -4.24424,0.71543 -6.35947,1.04619c-0.24111,-0.07471 -0.12012,-0.00234 -0.30615,-0.2918c-0.5373,-6.12422 2.32061,-17.13193 5.60625,-22.12412c5.76621,-8.75977 13.95791,-11.44893 23.7252,-13.4562z" id="Path 1" fill="url(#color-3)"/><path d="M1506.6208,734.52029c2.12783,-0.13184 4.32275,0.42656 6.15645,1.50059c4.5082,2.64141 7.37578,7.70596 8.65107,12.64219c1.7915,6.93574 1.13965,14.67891 -2.52715,20.8957c6.6917,0.81328 13.84014,3.79746 18.79746,8.42373c-5.58604,-3.17051 -11.32031,-6.04658 -17.78145,-6.8543c-10.25625,-1.60342 -20.83975,0.93516 -30.00498,5.56436c2.30449,-2.00127 5.30947,-3.3665 8.06807,-4.63506c-3.7084,-3.28389 -5.3499,-7.99307 -5.85234,-12.80566c-0.70312,-6.73652 0.89121,-14.06777 5.22451,-19.39834c2.50957,-3.08672 5.26611,-4.93916 9.26836,-5.3332z" id="Path 1" fill="#020202"/><path d="M1504.05527,769.72078c-0.00381,-0.07529 -0.00469,-0.15088 -0.01143,-0.22588c-0.08174,-0.91143 -1.12705,-2.28691 -1.49736,-3.19131c-1.88086,-4.59316 -2.37656,-10.94971 0.75586,-15.15938c1.16777,-1.56943 3.02959,-2.9666 4.99277,-3.24932c1.57734,-0.22676 2.87842,0.32285 4.10039,1.28906c2.73135,2.16006 4.50557,6.49102 4.89902,9.89063c0.32578,2.81484 -0.07559,6.81709 -1.89814,9.11426c-0.52383,0.66006 -0.87246,0.89092 -1.71709,0.96182c-3.17402,0.26631 -6.2083,0.38203 -9.35449,0.99404z" id="Path 1" fill="#302a21"/><path d="M1504.96523,752.4784c0.27422,-0.00059 0.51475,0.01289 0.78457,0.07324c0.48164,0.10811 0.85371,0.46377 1.10361,0.8751c0.46992,0.77373 0.46055,1.75781 0.20361,2.60156c-0.27041,0.88887 -0.70811,1.34209 -1.50322,1.7874c-0.20098,-0.01055 -0.40049,-0.0332 -0.59854,-0.06797c-0.50244,-0.08701 -0.92988,-0.45703 -1.20938,-0.86895c-0.45645,-0.67412 -0.50068,-1.50322 -0.33135,-2.27871c0.21973,-1.00693 0.69287,-1.58467 1.55068,-2.12168z" id="Path 1" fill="#ffffff"/><path d="M1498.79531,771.64119c-2.34639,-1.73057 -3.7916,-4.44316 -4.68633,-7.16865c-2.10908,-6.42656 -1.71211,-14.15713 1.35996,-20.21367c1.86064,-3.66826 4.65908,-7.20645 8.71553,-8.48174c0.16133,-0.05078 0.32393,-0.09756 0.48779,-0.14033c0.16367,-0.04277 0.32832,-0.08135 0.49395,-0.11572c0.16562,-0.03457 0.33203,-0.06494 0.49922,-0.09111c0.16719,-0.02617 0.33496,-0.04814 0.50332,-0.06592c0.16816,-0.01797 0.33672,-0.03164 0.50566,-0.04102c0.16895,-0.00938 0.33809,-0.01455 0.50742,-0.01553c0.16914,-0.00098 0.33828,0.00225 0.50742,0.00967c0.16895,0.00762 0.3377,0.01934 0.50625,0.03516c0.16836,0.01602 0.33633,0.03613 0.50391,0.06035c0.16738,0.02422 0.33408,0.05264 0.5001,0.08525c0.16602,0.03262 0.33115,0.06943 0.49541,0.11045c0.16426,0.04082 0.32734,0.08574 0.48926,0.13477c0.16191,0.04902 0.32256,0.10205 0.48193,0.15908c0.15938,0.05703 0.31719,0.11797 0.47344,0.18281c0.15625,0.06484 0.31074,0.13359 0.46348,0.20625c0.15293,0.07266 0.30391,0.14902 0.45293,0.2291c4.17861,2.22715 6.98818,6.91465 8.29893,11.33057c2.19961,7.41123 1.43115,14.88281 -2.27197,21.63867c-0.8584,-0.04541 -1.71855,-0.13477 -2.5752,-0.20596c0.17129,-0.23555 0.33467,-0.47646 0.49014,-0.72275c0.15547,-0.24629 0.30283,-0.49746 0.44209,-0.75352c0.13906,-0.25586 0.26963,-0.51602 0.3917,-0.78047c0.12207,-0.26445 0.23545,-0.53262 0.34014,-0.80449c0.10449,-0.27188 0.2001,-0.54687 0.28682,-0.825c0.08672,-0.27793 0.16416,-0.5585 0.23232,-0.8417c0.06836,-0.2832 0.12744,-0.56836 0.17725,-0.85547c0.04961,-0.28691 0.08984,-0.5752 0.1207,-0.86484c0.4752,-4.19736 -0.72686,-8.92881 -3.40078,-12.23525c-1.39043,-1.71914 -3.41309,-3.2792 -5.68271,-3.46377c-1.7417,-0.1418 -3.41016,0.56221 -4.70479,1.69922c-2.64639,2.32412 -3.68848,6.04307 -3.87217,9.44912c-0.22207,4.12354 0.94307,8.32412 3.72686,11.43604l0.26953,0.42393c-1.87852,0.37148 -3.704,0.92607 -5.52949,1.49648z" id="Path 1" fill="#ffffff"/></g><g id="Group 1" stroke="none" stroke-linecap="butt" stroke-linejoin="miter"><path d="M1449.87715,659.81616c0.99873,0.36683 1.95967,0.82846 2.90977,1.30515c9.32461,4.67798 18.28945,10.61862 23.46123,20.01305c1.47422,2.67773 2.5084,5.46006 3.46904,8.34814c18.18047,-3.74971 30.8625,-2.12344 48.14209,4.56973c1.81465,-5.77588 4.25742,-10.33447 8.90186,-14.32822c8.18408,-7.03755 22.68574,-12.10916 33.44326,-11.30057c-3.54492,8.4784 -2.42285,17.92107 -4.94238,26.59529c-2.61416,9.00059 -7.72734,13.73789 -15.7248,18.09873c1.32979,2.62969 3.20449,5.05137 4.62539,7.66523c5.55264,10.21436 10.21084,20.89365 12.8666,32.25146c4.91426,-1.24395 10.01367,-1.76689 15.06943,-1.98779c12.71631,-0.55605 26.12256,0.97559 37.52432,7.01514c11.10615,5.88281 20.78701,15.56631 26.48262,26.80078c2.17939,4.29932 3.74121,8.83535 5.15713,13.43086l0.19043,0.05947c3.88037,-2.21191 7.171,-4.76719 9.99551,-8.24414c-2.38271,-1.94736 -3.77637,-4.10801 -4.63916,-7.06699c-2.87871,-9.87187 0.97471,-15.47666 8.40059,-21.7623c1.86797,-1.58115 4.10186,-3.14355 5.25527,-5.36367c1.00781,-1.93887 0.78076,-3.61113 0.11689,-5.59131c2.54004,3.77432 4.81611,7.89316 6.15205,12.25254c1.95293,6.37119 2.83799,13.87412 -0.45059,19.96729c-2.11055,3.90938 -5.21514,6.12656 -9.40283,7.35762c-2.50928,6.86309 -7.71709,12.59795 -13.83076,16.45107c3.05771,17.10527 1.90635,35.25469 -2.54063,52.01162c-0.5959,2.20117 -1.27637,4.37598 -2.04141,6.52441c-0.52031,1.4625 -2.41465,5.36631 -2.48145,6.54316c-0.1043,1.84395 0.03193,3.77168 0.12598,5.61621c0.29736,5.83271 0.95127,11.58047 2.58955,17.20342c0.98438,3.37822 2.33262,6.7002 3.16611,10.10918l0.06387,0.26631c-0.48281,1.7209 -1.28203,3.00498 -2.57021,4.23486c-5.00391,4.77744 -15.46201,7.53105 -22.27588,7.38838c-5.20518,-0.10928 -15.06504,-2.31416 -18.79453,-6.20186c-0.34102,-3.86982 0.33398,-5.72695 2.75596,-8.80518c-0.50889,-8.40322 -1.56738,-15.31934 -3.47402,-23.51045c-2.9666,1.15898 -5.92793,2.29629 -8.93613,3.34482c0.95859,3.35654 3.49336,11.62119 2.72549,14.81367c-0.67617,2.81074 -3.0832,4.86885 -5.47412,6.28154c-6.7043,3.96152 -15.88301,4.25801 -23.25996,2.38213c0.31787,4.14492 1.98662,17.97217 -0.05801,20.92148c-2.71289,3.9123 -11.53066,6.16699 -16.14346,6.89531c-7.1792,1.1335 -17.29131,0.55225 -24.08555,-2.02998c-2.38301,-0.90586 -4.48154,-2.15449 -6.53613,-3.65127c0.21621,-1.82139 0.74209,-3.78779 1.53809,-5.44687c0.72773,-1.51641 1.56123,-2.81104 1.90371,-4.4915c2.12021,-10.40537 -0.44707,-20.59102 -2.28926,-30.78838c-5.01445,-0.47578 -9.86982,-1.39424 -14.78086,-2.49521c0.21416,1.77686 0.65713,3.55313 0.96943,5.31943c0.88623,5.01064 1.89551,10.004 2.73428,15.02139c0.39404,2.35488 0.87393,4.80645 0.95625,7.19473c-0.68457,0.75293 -1.40762,1.4667 -2.16914,2.14131c-7.15635,6.30117 -17.8957,7.65732 -27.09082,7.10186c-5.81748,-0.35156 -14.79404,-1.46924 -18.78691,-5.96572c1.64531,-5.8793 3.05625,-9.6249 6.86865,-14.47354c-0.67471,-2.49492 -1.53369,-4.90928 -2.1375,-7.4335c-2.77969,-11.62002 -3.53672,-23.23184 -3.14766,-35.14014c-1.94531,-2.34639 -3.49482,-4.91602 -5.3625,-7.3002c-11.86201,-1.35879 -25.58584,-4.4332 -35.92324,-10.62803c-6.12891,-3.67295 -11.47412,-8.1416 -15.6997,-13.93682c-0.90826,-1.2457 -1.43086,-2.73896 -2.35512,-3.93691c-0.82304,-1.06699 -2.04899,-1.93564 -3.01043,-2.88955c-2.58498,-2.56436 -4.50237,-6.27627 -5.35503,-9.80127c-1.55112,-6.41191 0.22852,-12.0832 3.56689,-17.59629c-5.37056,-7.82754 -8.48801,-16.37813 -10.23475,-25.67637c-2.83371,-15.08408 -2.0768,-38.56846 6.90765,-51.65801c0.76389,-1.11299 1.94918,-3.22617 3.31822,-3.48193c2.23236,0.49219 1.81503,5.27314 2.00344,6.97734c1.70244,15.4002 8.25647,31.74023 18.85169,43.16133c0.82119,-3.93252 1.96377,-7.81172 3.03809,-11.68096c1.10684,-3.98525 2.20195,-7.98311 3.62695,-11.86934c0.28457,-0.76367 0.57881,-1.52354 0.88271,-2.27959c0.3041,-0.75625 0.61777,-1.5084 0.94102,-2.25645c0.32344,-0.74805 0.65635,-1.4918 0.99873,-2.23125c0.34258,-0.73965 0.69453,-1.47471 1.05586,-2.20518c0.36133,-0.73027 0.73203,-1.45596 1.11211,-2.17705c0.38008,-0.7209 0.76934,-1.43682 1.16777,-2.14775c0.39844,-0.71094 0.80586,-1.4166 1.22227,-2.11699c0.4166,-0.70039 0.84219,-1.39531 1.27676,-2.08477c0.43437,-0.68965 0.87754,-1.37354 1.32949,-2.05166c0.45215,-0.67812 0.91279,-1.35029 1.38193,-2.0165c0.46934,-0.66621 0.94717,-1.32637 1.4335,-1.98047c0.48633,-0.65391 0.98096,-1.30146 1.48389,-1.94268c0.50293,-0.64141 1.01396,-1.27617 1.53311,-1.9043c0.51934,-0.62813 1.04658,-1.24941 1.58174,-1.86387c0.53516,-0.61465 1.07813,-1.22227 1.62891,-1.82285c0.55098,-0.60059 1.10947,-1.19404 1.67549,-1.78037c-3.71338,-2.61914 -6.59824,-6.9126 -8.18877,-11.12783c-3.00234,-7.95645 -1.99395,-17.92395 0.63018,-25.88678c0.81855,-2.48344 1.91396,-4.84365 2.98447,-7.22487z" id="Path 1" fill="#020202"/><path d="M1449.48926,664.3004c0.27012,-0.7788 0.55986,-2.05843 1.19854,-2.58393l0.38203,0.10553c-0.03457,0.42079 -0.04307,0.83104 -0.16963,1.23557l-0.25283,0.10644l-0.07998,0.19992c-0.16465,0.40312 -0.2543,0.77338 -0.64424,1.01013z" id="Path 1" fill="#aab9d0"/><path d="M1451.88779,743.47781c0.35449,0.01377 0.81299,-0.01436 1.11592,0.19834c0.42598,0.29883 0.6958,0.72305 0.74033,1.24248c0.06592,0.7667 -0.22734,1.32451 -0.72773,1.87412c-0.4125,0.07002 -0.78164,0.14092 -1.15312,-0.12012c-0.28213,-0.19834 -0.45791,-0.49658 -0.53438,-0.82881c-0.19453,-0.84785 0.08701,-1.67109 0.55898,-2.36602z" id="Path 1" fill="#ffffff"/><path d="M1447.27939,748.37156c-0.05449,-1.30752 0.63047,-3.12568 1.18887,-4.29844c0.99492,-2.09033 2.59336,-3.90645 4.8542,-4.64678c0.09258,-0.03105 0.18594,-0.05977 0.28008,-0.08613c0.09395,-0.02637 0.18857,-0.05039 0.28389,-0.07207c0.09531,-0.02148 0.19111,-0.04063 0.2874,-0.05742c0.09629,-0.0166 0.19287,-0.03086 0.28975,-0.04277c0.09707,-0.01191 0.19434,-0.02129 0.2918,-0.02812c0.09746,-0.00703 0.19502,-0.01152 0.29268,-0.01348c0.09766,-0.00195 0.19531,-0.00146 0.29297,0.00146c0.09766,0.00313 0.19512,0.00859 0.29238,0.01641c0.09746,0.00781 0.19463,0.01816 0.2915,0.03105c0.09668,0.01289 0.19307,0.02813 0.28916,0.0457c0.09609,0.01777 0.1917,0.03789 0.28682,0.06035c0.09512,0.02266 0.18955,0.04766 0.2833,0.075c0.09375,0.02715 0.18682,0.05674 0.2792,0.08877c0.09219,0.03203 0.18359,0.06641 0.27422,0.10312c0.09062,0.03672 0.18018,0.07568 0.26865,0.11689c0.08867,0.04102 0.17617,0.08437 0.2625,0.13008c2.20781,1.14375 3.72568,3.55459 4.49355,5.85264c-0.06006,-0.07002 -0.12158,-0.13857 -0.18047,-0.20947c-0.43916,-0.5291 -0.7125,-1.21113 -1.05967,-1.80322c-0.74326,-1.26797 -1.78857,-2.77207 -3.11104,-3.47666c-0.48486,-0.25811 -1.0418,-0.36445 -1.54834,-0.57832l0.19687,0.36182l-0.2458,-0.37559c-0.46758,0.44268 -0.53057,0.47402 -1.16631,0.57363l0.10811,0.26455l-0.18721,0.23174l0.38027,0.12979l0.0085,0.20068c-0.38145,0.1749 -0.56162,0.13008 -0.95918,0.0624l-0.15469,-0.16318c0.19541,-0.33633 0.41748,-0.54551 0.35889,-0.94014l-0.3832,-0.28125c-0.32168,0.07002 -0.51592,0.46611 -0.72393,0.35947c-0.30937,-0.15879 -0.43184,-0.27012 -0.77666,-0.16084c-1.91543,0.60791 -3.41309,2.7832 -4.23135,4.50293c-0.5915,1.24248 -1.0292,2.56348 -1.1874,3.93428z" id="Path 1" fill="#302a21"/><path d="M1662.51094,790.29949c0.14326,0.50654 -0.00674,0.76699 -0.25547,1.23545c-1.39482,2.62764 -7.70625,7.5085 -10.44727,8.49697c-0.14854,-0.59121 -0.34893,-1.16221 -0.54551,-1.73877l0.19043,0.05947l0.21299,0.44238c0.1251,0.0416 0.18428,0.07236 0.33135,0.05801c1.73584,-0.16992 6.33984,-4.16367 7.60781,-5.38096c1.03418,-0.99316 1.96641,-2.09033 2.90566,-3.17256z" id="Path 1" fill="url(#color-4)"/><path d="M1407.18396,792.34178l1.0568,1.26826c-2.93628,5.85381 -4.00805,12.0832 -1.89152,18.40869c0.22157,0.6624 0.68344,1.44463 0.63732,2.13896l-0.2492,0.29062c-1.54022,-2.08447 -2.6175,-4.68516 -3.05473,-7.23662c-0.88055,-5.13838 0.50033,-10.64502 3.50133,-14.86992z" id="Path 1" fill="#b6c8de"/><path d="M1451.06982,661.822c8.15303,4.0403 16.47217,8.89386 21.77227,16.54497c-0.03311,0.29326 0.00146,0.13447 -0.12891,0.47051c-0.96621,0.01494 -3.85547,-2.99663 -4.76543,-3.78404c-3.41514,-2.95538 -7.17979,-5.75476 -10.96787,-8.21968c-1.82109,-1.18494 -4.56504,-2.32222 -6.07969,-3.77619c0.12656,-0.40453 0.13506,-0.81478 0.16963,-1.23557z" id="Path 1" fill="#b6c8de"/><path d="M1451.41025,686.65594c1.72383,0.61289 5.34844,5.56816 7.56797,7.06758c1.09775,0.7415 3.1251,1.40332 3.71104,2.59893c0.12187,0.24873 0.1415,0.31758 0.37002,0.45146c-1.00225,1.02129 -2.68945,1.9415 -3.87744,2.79404c-4.30869,-3.5877 -6.49629,-7.49531 -7.77158,-12.91201z" id="Path 1" fill="#c57b7d"/><path d="M1521.08232,883.82889c0.12363,-0.06768 0.28857,-0.2001 0.34131,-0.33838c0.29121,-0.75996 0.28594,-3.77256 0.35361,-4.75811c0.31992,-4.65322 0.57686,-11.33232 1.96436,-15.73213l0.37764,-1.18271c-0.01875,1.91426 0.01924,3.82734 0.11396,5.73926c0.09453,1.91191 0.24561,3.81943 0.45322,5.72256c0.20762,1.90293 0.47139,3.79814 0.79131,5.68564c0.31992,1.8873 0.69541,3.76357 1.12646,5.62881c-1.77598,-0.20244 -3.80801,-0.26924 -5.52187,-0.76494z" id="Path 1" fill="#596574"/><path d="M1580.63262,896.61463c0.83408,-0.02695 1.60635,0.19512 2.31123,0.64072c2.14365,1.35586 3.01787,4.04883 3.54316,6.38672c-1.58027,0.33252 -3.19629,0.44033 -4.80615,0.51094c-1.90547,0.0583 -3.80449,-0.09551 -5.69678,-0.30205c-0.01523,-1.33975 0.04014,-2.45859 0.61348,-3.71074c0.80947,-1.76807 2.25557,-2.86172 4.03506,-3.52559z" id="Path 1" fill="#9fa8b5"/><path d="M1667.63701,780.28436c0.40225,7.04736 -2.84766,13.7959 -7.42646,18.95039c-2.1457,2.41523 -4.63857,4.44287 -7.22139,6.3665l-1.18096,-5.56934c2.74102,-0.98848 9.05244,-5.86934 10.44727,-8.49697c0.24873,-0.46846 0.39873,-0.72891 0.25547,-1.23545c2.27813,-3.11309 4.23574,-6.20068 5.12607,-10.01514z" id="Path 1" fill="url(#color-5)"/><path d="M1614.73564,901.29656c0.18691,-0.01113 0.38789,-0.01494 0.57305,0.00908c0.69053,0.08994 1.25098,0.69199 1.65264,1.21934c2.1167,2.77793 3.01084,7.67607 2.5002,11.07275c-1.24482,-0.30762 -2.45039,-0.67061 -3.66357,-1.08516c-1.6166,-0.62285 -5.26641,-1.89492 -6.04072,-3.47402c-0.44121,-0.89971 -0.21006,-1.9377 0.14502,-2.82275c0.05527,-0.13672 0.11387,-0.27197 0.17578,-0.40576c0.06191,-0.13379 0.12705,-0.26602 0.19541,-0.39668c0.06836,-0.13066 0.13994,-0.25957 0.21475,-0.38672c0.07461,-0.12715 0.15234,-0.25234 0.2332,-0.37559c0.08105,-0.12344 0.16494,-0.24473 0.25166,-0.36387c0.08691,-0.11914 0.17656,-0.23613 0.26895,-0.35098c0.09258,-0.11484 0.18789,-0.22725 0.28594,-0.33721c0.09805,-0.11016 0.19873,-0.21787 0.30205,-0.32314c0.10352,-0.10508 0.20947,-0.20762 0.31787,-0.30762c0.1084,-0.1 0.21914,-0.19727 0.33223,-0.2918c0.11309,-0.09453 0.22852,-0.18633 0.34629,-0.27539c0.11758,-0.08887 0.2373,-0.1748 0.35918,-0.25781c0.12188,-0.08301 0.2457,-0.16299 0.37148,-0.23994c0.12578,-0.07695 0.25332,-0.15078 0.38262,-0.22148c0.12949,-0.0707 0.26064,-0.13818 0.39346,-0.20244c0.13262,-0.06426 0.2668,-0.1252 0.40254,-0.18281z" id="Path 1" fill="#b6c8de"/><path d="M1477.36846,906.45691c0.59619,-0.02871 1.12939,0 1.69453,0.21387c2.22861,0.84346 3.59004,3.38408 4.49004,5.43779c-0.97646,1.99482 -1.63975,3.6252 -1.87236,5.84648c-1.34004,-0.25996 -2.67734,-0.53301 -4.01191,-0.81914c-2.61094,-0.60645 -4.90781,-1.5 -7.09277,-3.06357c0.39111,-1.10537 0.77842,-2.15039 1.37139,-3.16816c1.27061,-2.18057 2.93203,-3.79277 5.42109,-4.44727z" id="Path 1" fill="#9fa8b5"/><path d="M1488.8625,909.09598c0.12422,-0.00967 0.24814,-0.02021 0.37266,-0.02461c1.79971,-0.0668 3.25254,0.6208 4.54189,1.85566c2.08945,2.00098 3.07471,4.6374 3.1459,7.48887c-1.88496,0.16699 -3.75615,0.31787 -5.6499,0.3252c-2.68828,0.03838 -5.59307,-0.13623 -8.24385,-0.58506c0.2707,-1.19414 0.56074,-2.36953 0.99639,-3.51621c0.94307,-2.48174 2.35811,-4.42939 4.83691,-5.54385z" id="Path 1" fill="#9fa8b5"/><path d="M1491.08965,815.4409c0.01436,0.04629 0.03369,0.09111 0.04277,0.13857c0.30352,1.58115 -4.18447,11.06484 -5.24033,12.65684c-1.05645,1.59258 -2.54414,3.25752 -4.52051,3.59619c-2.10557,0.36094 -4.11885,-1.08838 -5.71729,-2.26699c-0.975,-0.80742 -1.92861,-1.61719 -2.83916,-2.49902c7.00283,-3.26924 12.34951,-6.64746 18.27451,-11.62559z" id="Path 1" fill="#ffffff"/><path d="M1628.35283,903.23074c1.46865,-0.0665 2.7085,0.23145 3.8376,1.22607c2.51455,2.21572 2.78525,6.14385 2.91504,9.25547c-2.32441,0.73711 -4.76631,0.92725 -7.18799,1.01426c-1.12891,-0.01328 -2.25488,-0.07852 -3.37793,-0.1957c-1.12285,-0.11738 -2.23799,-0.28623 -3.34541,-0.50654c0.30762,-1.64268 0.70635,-3.20625 1.36289,-4.7502c1.1833,-2.78262 2.95576,-4.89756 5.7958,-6.04336z" id="Path 1" fill="#b6c8de"/><path d="M1608.69053,877.2368c10.64443,-5.03291 20.72168,-12.54785 27.47344,-22.27822l0.45234,1.06289c-0.49482,1.72559 -1.52842,3.40225 -2.45742,4.93711c-5.30947,8.77383 -14.2957,16.90723 -23.18057,21.97207c-0.20391,0.11631 -0.41602,0.22002 -0.62813,0.32051c-0.38965,-2.08096 -0.94863,-4.02627 -1.65967,-6.01436z" id="Path 1" fill="#596574"/><path d="M1453.96846,706.73602c0.72861,-1.03535 1.72939,-1.96406 2.62588,-2.86055c4.78096,-4.78125 10.39336,-8.21777 16.64063,-10.74785c17.17529,-6.95625 37.50088,-4.60312 54.21182,2.53535c-0.19746,0.73799 -0.37002,1.48418 -0.55225,2.22627c-4.57383,-2.57725 -10.05615,-4.17334 -15.18398,-5.18789c-11.4665,-2.26846 -22.06055,-2.22305 -33.39023,0.92813c-5.2793,1.46865 -10.95879,3.81416 -15.51768,6.8584c-2.08652,1.39307 -3.98818,3.03545 -5.94023,4.60576c-0.70547,0.56719 -1.99131,1.94063 -2.89395,1.64238z" id="Path 1" fill="#b6c8de"/><path d="M1535.11318,915.68103c0.47959,-0.03984 1.00664,-0.05273 1.47979,0.03574c1.43496,0.26777 2.57871,1.31807 3.3498,2.50752c1.23193,1.89961 2.38184,5.12812 1.96582,7.39893c-0.30439,1.6623 -1.07168,3.31787 -1.44463,5.00273c-1.68135,-0.29941 -3.35508,-0.59355 -5.01152,-1.01338c-2.654,-0.61318 -5.81572,-1.81348 -7.92305,-3.58271c0.35889,-1.99336 0.96914,-3.93281 1.98398,-5.69443c1.28936,-2.23857 3.06064,-3.95742 5.5998,-4.65439z" id="Path 1" fill="#ffffff"/><path d="M1550.96895,918.93006c1.47715,0.02314 2.70088,0.54492 3.80479,1.529c2.75186,2.45303 3.94951,6.35918 4.21055,9.91875c-2.92529,0.56982 -5.79697,0.93018 -8.77822,1.02451c-2.71777,0.03789 -5.4208,-0.14365 -8.10908,-0.54463c0.21914,-2.91533 1.50029,-5.79082 3.19365,-8.14336c1.44346,-2.00537 3.17402,-3.36973 5.67832,-3.78428z" id="Path 1" fill="#ffffff"/><path d="M1547.22305,714.13641l0.7207,-0.3249c2.32705,1.02832 11.41143,20.98828 12.91406,24.85869c7.32217,18.86104 12.95713,44.51191 4.40742,63.80566c-3.51035,7.92188 -8.50723,14.48438 -15.01465,20.18057c-0.121,-0.25605 -0.24434,-0.44531 -0.14414,-0.73975c0.18105,-0.53291 1.62041,-1.85713 2.07129,-2.35488c6.9252,-7.64736 12.1541,-17.24883 14.03936,-27.45234c2.22539,-12.0457 1.57178,-24.36094 -1.26504,-36.25576c-0.42598,-1.78564 -1.00459,-3.53408 -1.50059,-5.30127c-2.39004,-8.51836 -4.86592,-15.17812 -8.78408,-23.14102c-1.5208,-3.09053 -2.93877,-6.4207 -4.69951,-9.37295c-0.80742,-1.35381 -1.85068,-2.60068 -2.74482,-3.90205z" id="Path 1" fill="#b6c8de"/><path d="M1471.76719,859.11082c1.69775,1.84688 3.37793,3.70723 5.22744,5.40498c9.46143,8.68594 21.20713,14.64199 33.41572,18.38643c0.49141,2.14414 0.91318,4.30195 1.26533,6.47344c-2.09561,-0.34893 -4.21582,-1.05264 -6.22588,-1.73203c-9.0665,-3.06475 -18.06035,-7.82725 -25.20498,-14.24941c-1.92803,-1.73291 -6.65332,-6.93457 -8.32178,-7.97139l-0.1043,1.21992c-0.30938,-2.45215 -0.1125,-5.06689 -0.05156,-7.53193z" id="Path 1" fill="#596574"/><path d="M1449.48926,664.3004l0.43389,0.07365c0.38994,-0.23675 0.47959,-0.607 0.64424,-1.01013l0.07998,-0.19992l0.25283,-0.10644c1.51465,1.45397 4.25859,2.59125 6.07969,3.77619c3.78809,2.46492 7.55273,5.2643 10.96787,8.21968c0.90996,0.78741 3.79922,3.79898 4.76543,3.78404c0.13037,-0.33604 0.0958,-0.17725 0.12891,-0.47051c2.6001,3.49658 4.27881,7.42617 5.6792,11.51865c-1.80937,0.48457 -3.56396,1.01748 -5.29248,1.74609c-0.94717,-3.19717 -2.02383,-6.31641 -3.75117,-9.18926c-3.5918,-5.97357 -11.58018,-12.2453 -17.47646,-15.93478c-0.53232,1.42116 -0.81035,2.99106 -1.12822,4.47363c-1.18066,5.50603 -1.78506,10.67979 -0.65859,16.26437c1.02744,5.09297 3.4708,10.16426 7.88496,13.1165c-0.93574,0.98643 -1.9957,1.87119 -2.95078,2.84824c-3.36943,-3.09785 -5.9332,-6.33809 -7.50293,-10.69307c-2.56289,-7.10859 -1.93535,-14.65371 -0.18838,-21.86493c0.51738,-2.13533 1.0916,-4.36313 2.03203,-6.35203z" id="Path 1" fill="#9fa8b5"/><path d="M1451.99355,761.02898c-1.03359,0.48223 -2.19229,0.82031 -3.34248,0.76494c-1.44492,-0.06943 -2.66543,-0.80244 -3.58652,-1.88994c-3.02871,-3.57656 -3.53262,-9.52207 -3.09346,-13.98223c0.51357,-5.21631 2.67012,-11.09414 6.87305,-14.46299c1.79619,-1.43965 4.36201,-2.57168 6.68994,-2.25264c2.31064,0.31699 4.16836,1.78008 5.51162,3.6126c3.53232,4.81934 3.29385,11.10469 2.44131,16.71064c-0.38555,-1.2873 -0.5666,-2.6543 -1.12471,-3.88154c-0.76787,-2.29805 -2.28574,-4.70889 -4.49355,-5.85264c-0.08633,-0.0457 -0.17383,-0.08906 -0.2625,-0.13008c-0.08848,-0.04121 -0.17803,-0.08018 -0.26865,-0.11689c-0.09062,-0.03672 -0.18203,-0.07109 -0.27422,-0.10312c-0.09238,-0.03203 -0.18545,-0.06162 -0.2792,-0.08877c-0.09375,-0.02734 -0.18818,-0.05234 -0.2833,-0.075c-0.09512,-0.02246 -0.19072,-0.04258 -0.28682,-0.06035c-0.09609,-0.01758 -0.19248,-0.03281 -0.28916,-0.0457c-0.09687,-0.01289 -0.19404,-0.02324 -0.2915,-0.03105c-0.09727,-0.00781 -0.19473,-0.01328 -0.29238,-0.01641c-0.09766,-0.00293 -0.19531,-0.00342 -0.29297,-0.00146c-0.09766,0.00195 -0.19521,0.00645 -0.29268,0.01348c-0.09746,0.00684 -0.19473,0.01621 -0.2918,0.02812c-0.09688,0.01191 -0.19346,0.02617 -0.28975,0.04277c-0.09629,0.0168 -0.19209,0.03594 -0.2874,0.05742c-0.09531,0.02168 -0.18994,0.0457 -0.28389,0.07207c-0.09414,0.02637 -0.1875,0.05508 -0.28008,0.08613c-2.26084,0.74033 -3.85928,2.55645 -4.8542,4.64678c-0.5584,1.17275 -1.24336,2.99092 -1.18887,4.29844c-0.12627,0.87158 -0.19219,1.71182 -0.17959,2.59395c0.06592,4.59053 1.72119,7.00693 4.89375,10.06348z" id="Path 1" fill="#ffffff"/><path d="M1452.52676,668.35005c5.8957,3.74271 12.97529,9.19573 16.39131,15.34339c1.45664,2.6209 2.34639,5.45215 3.18838,8.31533c-3.12451,1.41563 -6.12598,2.96426 -9.04717,4.76514c-0.22852,-0.13389 -0.24814,-0.20273 -0.37002,-0.45146c-0.58594,-1.19561 -2.61328,-1.85742 -3.71104,-2.59893c-2.21953,-1.49941 -5.84414,-6.45469 -7.56797,-7.06758c-1.14287,-6.29648 -0.05068,-12.13078 1.1165,-18.30589z" id="Path 1" fill="#da8c8a"/><path d="M1671.85576,754.49812c0.5291,0.53086 0.92227,1.51904 1.24893,2.19375c3.27012,6.75469 5.36338,15.96592 2.77822,23.23975c-1.65908,4.66787 -4.54541,7.58965 -8.91855,9.69609c1.03682,-3.53496 2.19873,-8.30596 1.16953,-11.93496c-0.08848,-0.31201 -0.18018,-0.59414 -0.4752,-0.74561c-0.40752,0.7415 -0.48193,2.12695 -0.68379,2.98623c-1.13408,3.56543 -2.9291,6.68379 -5.19492,9.63223c-0.18457,-0.17109 -0.36533,-0.34717 -0.5291,-0.53906c-1.87207,-2.19287 -3.08848,-5.68242 -3.5918,-8.48584c-2.85234,-15.88887 13.46748,-17.51865 14.19668,-26.04258z" id="Path 1" fill="#77482e"/><path d="M1597.20322,881.41307l0.16904,0.04365c0.07031,0.11074 0.10547,0.15439 0.15117,0.29355c0.33105,1.0084 0.43066,2.24355 0.65684,3.29033c0.61611,2.85557 2.61182,9.39551 1.16484,11.91299c-2.0124,3.50039 -7.61484,5.42725 -11.2377,6.54434c-0.71016,-2.47646 -1.54658,-4.9248 -3.45117,-6.75791c-1.00693,-0.96885 -2.31094,-1.64971 -3.73594,-1.59492c-1.85156,0.07119 -3.2335,1.27266 -4.43818,2.54502c-1.35527,1.80234 -1.604,3.63076 -1.7874,5.81309l-2.22012,-0.525c-0.4251,-2.32441 -0.52734,-4.74873 -0.70576,-7.10537c-0.26719,-3.53291 -0.53936,-7.07373 -0.64043,-10.61572c4.0459,-0.26133 8.10322,-0.40459 12.1292,-0.90762c4.75459,-0.59414 9.33018,-1.67842 13.94561,-2.93643z" id="Path 1" fill="#596574"/><path d="M1572.38232,872.49656l0.11865,0.17344c1.47275,0.40313 8.52275,-0.01494 10.48359,-0.13096c13.1168,-0.7752 27.07764,-4.12324 38.87725,-9.96797c2.87842,-1.42588 5.75303,-2.9168 8.54561,-4.50439c1.42031,-0.80742 2.83828,-1.875 4.31807,-2.53477c0.0375,-0.0167 0.07559,-0.03252 0.11367,-0.04863c-1.7168,2.56758 -4.03271,4.80996 -6.31201,6.88418c-10.82988,9.85488 -25.12148,16.71533 -39.44092,19.56709c-2.9625,0.58066 -5.94541,1.02334 -8.94873,1.32803c-3.00352,0.30449 -6.01465,0.46982 -9.0334,0.496c0.11572,-3.7459 0.2748,-7.63389 1.27822,-11.26201z" id="Path 1" fill="#717e8c"/><path d="M1471.81875,866.64275l0.1043,-1.21992c1.66846,1.03682 6.39375,6.23848 8.32178,7.97139c7.14463,6.42217 16.13848,11.18467 25.20498,14.24941c2.01006,0.67939 4.13027,1.38311 6.22588,1.73203c1.37578,7.01699 2.5543,14.06699 3.53555,21.15c-0.28203,0.26094 -0.56895,0.51631 -0.86074,0.76611c-0.2916,0.2498 -0.58799,0.49395 -0.88916,0.73242c-0.30117,0.23848 -0.60684,0.47109 -0.91699,0.69785c-0.30996,0.22656 -0.62432,0.44717 -0.94307,0.66182c-0.31855,0.21465 -0.64111,0.42314 -0.96768,0.62549c-0.32656,0.20215 -0.65684,0.39805 -0.99082,0.5877c-0.33418,0.18945 -0.67187,0.37246 -1.01309,0.54902c-0.34102,0.17676 -0.68535,0.34678 -1.03301,0.51006c-0.34766,0.16328 -0.69834,0.31992 -1.05205,0.46992c-0.35371,0.1498 -0.71016,0.29277 -1.06934,0.42891c-0.35918,0.13633 -0.7208,0.26563 -1.08486,0.38789c-0.36426,0.12227 -0.73066,0.2375 -1.09922,0.3457c-0.36855,0.1082 -0.73906,0.20928 -1.11152,0.30322c-0.37246,0.09395 -0.74658,0.18076 -1.12236,0.26045c-0.37578,0.07969 -0.75293,0.15205 -1.13145,0.21709c-0.37852,0.06504 -0.7582,0.12285 -1.13906,0.17344c-0.5874,-3.40781 -1.81553,-6.8083 -4.6043,-9.03105c-1.40537,-1.12031 -3.22734,-1.91514 -5.0543,-1.68105c-2.09854,0.26865 -3.39844,1.68574 -4.64443,3.24229c-0.60352,-1.47217 -1.32246,-2.86318 -2.47734,-3.98438c-1.15723,-1.12324 -2.66748,-1.81729 -4.29756,-1.75254c-2.20195,0.0876 -3.72246,1.30371 -5.17441,2.80635c1.12324,-2.8377 2.89014,-5.25176 4.8668,-7.54775c-0.6041,-2.30273 -1.46426,-4.53164 -2.03906,-6.85078c-0.53594,-2.19336 -1.01221,-4.39951 -1.42881,-6.61846c-0.4166,-2.21914 -0.77285,-4.44785 -1.06875,-6.68613c-0.29609,-2.23828 -0.53135,-4.48301 -0.70576,-6.73418c-0.17441,-2.25098 -0.28779,-4.50508 -0.34014,-6.7623z" id="Path 1" fill="#717e8c"/><path d="M1636.61631,856.02146c2.34141,6.16025 3.36182,9.27158 8.20869,14.07305c-1.13086,4.33096 0.71045,18.59062 1.98457,23.37158c0.54463,2.04463 3.45117,10.18887 3.28066,11.45684c-0.28154,2.09268 -2.90537,3.9375 -4.5999,4.92979c-0.6918,0.39746 -1.39639,0.7708 -2.11377,1.12002c-0.71758,0.34902 -1.44619,0.67314 -2.18584,0.97236c-0.73965,0.29902 -1.48867,0.57246 -2.24707,0.82031c-0.7584,0.24785 -1.52441,0.46934 -2.29805,0.66445c-0.12656,-3.50068 -0.90527,-7.60283 -3.58008,-10.10947c-1.15518,-1.08223 -2.57402,-1.68662 -4.16807,-1.60283c-2.13018,0.11162 -3.99023,1.39893 -5.34697,2.96865c-1.23486,1.42852 -2.09648,3.16787 -2.64902,4.96641c-0.52676,-2.94756 -1.31045,-7.53252 -4.0043,-9.32725c-0.74619,-0.49717 -1.6333,-0.62373 -2.50518,-0.43506c-0.75967,0.16436 -1.48213,0.57891 -2.16885,0.93311c0.25459,-6.10137 -0.74678,-11.60742 -1.87295,-17.57227c0.21211,-0.10049 0.42422,-0.2042 0.62813,-0.32051c8.88486,-5.06484 17.87109,-13.19824 23.18057,-21.97207c0.929,-1.53486 1.9626,-3.21152 2.45742,-4.93711z" id="Path 1" fill="#717e8c"/><path d="M1405.20451,713.04861c0.27788,-0.31816 0.39167,-0.54023 0.80227,-0.6624l0.08643,0.11514l-0.23382,0.03516l-0.03032,0.07002l0.34913,0.20186c1.90901,14.67129 5.56937,28.74814 13.81438,41.22187c2.6042,3.93926 5.63584,7.7376 9.38877,10.64736c0.60801,0.46211 1.2333,0.89951 1.87588,1.31221c0.64258,0.4127 1.30039,0.79941 1.97344,1.16016c0.67324,0.36055 1.35957,0.69404 2.05898,1.00049c0.69961,0.30645 1.41016,0.58477 2.13164,0.83496c0.98555,0.3457 2.40791,0.40078 3.25518,0.98438c0.51094,0.35186 0.56221,0.79219 0.65596,1.36436c0.00879,0.04219 0.01816,0.08408 0.02637,0.12627c0.91816,4.75342 -0.8502,9.25664 -3.51064,13.14639c-3.97178,5.80752 -10.24043,10.70156 -17.27637,11.98418c-2.90918,0.52998 -5.9647,0.18545 -8.42437,-1.55537c-1.70373,-1.20586 -3.05396,-2.86523 -4.31672,-4.50732c-5.84194,-7.59756 -9.00354,-17.1252 -10.559,-26.504c-2.57288,-15.51357 -1.49165,-37.78564 7.93283,-50.97568z" id="Path 1" fill="#fdc16c"/><path d="M1405.20451,713.04861c0.27788,-0.31816 0.39167,-0.54023 0.80227,-0.6624l0.08643,0.11514l-0.23382,0.03516l-0.03032,0.07002l0.34913,0.20186c1.90901,14.67129 5.56937,28.74814 13.81438,41.22187c2.6042,3.93926 5.63584,7.7376 9.38877,10.64736c0.60801,0.46211 1.2333,0.89951 1.87588,1.31221c0.64258,0.4127 1.30039,0.79941 1.97344,1.16016c0.67324,0.36055 1.35957,0.69404 2.05898,1.00049c0.69961,0.30645 1.41016,0.58477 2.13164,0.83496c0.98555,0.3457 2.40791,0.40078 3.25518,0.98438c0.51094,0.35186 0.56221,0.79219 0.65596,1.36436c-0.4459,0.22471 -0.83994,0.36211 -1.3418,0.39902c-4.37432,0.32021 -9.27158,-3.29561 -12.36914,-5.98359c-13.09081,-11.36074 -19.74899,-28.36992 -21.88409,-45.20771c-0.31816,-2.50898 -0.35373,-4.97988 -0.53288,-7.49326z" id="Path 1" fill="#fee3a5"/><path d="M1567.96816,756.49939c0.02842,-0.37559 0.03428,-0.73389 0.02373,-1.11064l0.06328,-0.01992c1.06523,1.5082 1.61836,3.3375 2.29951,5.04141c4.68896,11.72578 5.56816,25.22344 3.43184,37.59258c-3.21299,18.60557 -12.98613,33.42393 -28.39307,44.2752c-6.74736,4.75225 -13.6749,8.49229 -21.34395,11.54033c0.17783,0.91787 0.2499,3.22793 0.83584,3.84199c-0.33281,1.35557 -0.65391,2.76445 -0.76611,4.15723l-0.37764,1.18271c-1.3875,4.3998 -1.64443,11.07891 -1.96436,15.73213c-0.06768,0.98555 -0.0624,3.99814 -0.35361,4.75811c-0.05273,0.13828 -0.21768,0.2707 -0.34131,0.33838c-13.41387,-2.36074 -26.17676,-7.48096 -37.14961,-15.60762c-2.33936,-1.73262 -4.64531,-3.52383 -6.72012,-5.57168c-3.86777,-3.81826 -7.05996,-8.21807 -10.28584,-12.57305c8.68008,0.7998 17.60127,0.16084 26.2166,-1.0333c24.9,-3.45146 51.32754,-14.47148 66.83467,-35.01914c10.03594,-13.29785 12.31318,-28.44814 10.24658,-44.68184c-0.55137,-4.33037 -1.65264,-8.5415 -2.25645,-12.84287z" id="Path 1" fill="#717e8c"/><path d="M1567.41504,754.48728c4.66816,-1.22256 9.59004,-1.68896 14.39971,-1.91016c13.73496,-0.63135 27.68145,1.24277 39.72275,8.30156c15.11455,8.86055 24.81855,23.61533 29.17559,40.36816c4.71709,18.13857 2.91768,41.36982 -2.44482,59.221c-0.9873,3.28652 -1.97051,6.51533 -3.44326,9.62666c-4.84688,-4.80146 -5.86729,-7.91279 -8.20869,-14.07305l-0.45234,-1.06289c3.16729,-5.4041 5.43809,-11.66689 5.78086,-17.96689c0.05303,-0.975 0.16494,-1.99717 0.05098,-2.96689l-0.12451,0.05918c-0.39287,1.59141 -0.31436,3.47432 -0.57305,5.11904c-0.76494,4.86299 -3.20801,12.63691 -6.45908,16.28027c-0.03809,0.01611 -0.07617,0.03193 -0.11367,0.04863c-1.47979,0.65977 -2.89775,1.72734 -4.31807,2.53477c-2.79258,1.5876 -5.66719,3.07852 -8.54561,4.50439c-11.79961,5.84473 -25.76045,9.19277 -38.87725,9.96797c-1.96084,0.11602 -9.01084,0.53408 -10.48359,0.13096l-0.11865,-0.17344c0.65098,-2.71348 1.47949,-5.31064 2.5418,-7.89082c-10.61514,13.98164 -1.84102,42.64482 -3.0583,59.28311c-2.69795,3.46523 -7.25127,5.01885 -11.35342,6.07295c-0.13271,-0.92197 -0.25547,-1.85537 -0.45234,-2.7665c-0.70078,-3.24492 -2.62529,-7.02627 -5.53037,-8.82305c-1.45283,-0.89854 -3.18662,-1.28936 -4.86035,-0.85166c-2.77734,0.72627 -4.87617,3.18662 -6.28213,5.55117c-0.44238,-1.93037 -1.01074,-3.81563 -2.08066,-5.50137c-0.98877,-1.55859 -2.39648,-2.89834 -4.26064,-3.26865c-2.18848,-0.43477 -4.20088,0.45322 -5.95342,1.67227c0.35508,-1.97783 0.42773,-4.0415 0.48076,-6.04805c0.30967,-11.77676 -3.10166,-22.93711 -5.03467,-34.43115c-0.9999,-5.94346 -1.35264,-11.74014 -1.48301,-17.74658l-0.17021,-0.08789c-0.58594,-0.61406 -0.65801,-2.92412 -0.83584,-3.84199c7.66904,-3.04805 14.59658,-6.78809 21.34395,-11.54033c15.40693,-10.85127 25.18008,-25.66963 28.39307,-44.2752c2.13633,-12.36914 1.25713,-25.8668 -3.43184,-37.59258c-0.68115,-1.70391 -1.23428,-3.5332 -2.29951,-5.04141l-0.06328,0.01992c0.01055,0.37676 0.00469,0.73506 -0.02373,1.11064z" id="Path 1" fill="#9fa8b5"/><path d="M1526.34404,711.66463c0.26602,-2.8207 0.3041,-5.64844 0.62988,-8.46826c0.99229,-8.58662 3.99668,-17.28955 10.83311,-22.94414c7.8123,-6.46172 20.20283,-10.62762 30.3252,-10.54137c-0.86543,3.05897 -1.61426,6.12387 -2.06777,9.27369c-0.52705,3.66152 -0.69229,7.36787 -1.26387,11.02266c-1.5627,9.9876 -6.30234,16.77451 -15.14209,21.68232c-3.98174,2.21074 -8.10176,3.37383 -12.61201,3.92988c-1.44521,0.17812 -2.92207,0.23115 -4.35645,0.45996c4.16543,0.98174 10.73672,0.00322 14.53301,-1.94297c0.89414,1.30137 1.9374,2.54824 2.74482,3.90205c1.76074,2.95225 3.17871,6.28242 4.69951,9.37295c3.91816,7.96289 6.39404,14.62266 8.78408,23.14102c0.496,1.76719 1.07461,3.51563 1.50059,5.30127c2.83682,11.89482 3.49043,24.21006 1.26504,36.25576c-1.88525,10.20352 -7.11416,19.80498 -14.03936,27.45234c-0.45088,0.49775 -1.89023,1.82197 -2.07129,2.35488c-0.1002,0.29443 0.02314,0.48369 0.14414,0.73975c-1.87266,2.42666 -9.21475,7.38311 -11.99209,9.10283c-4.50791,2.79141 -9.36211,5.11787 -14.24473,7.17188c-22.51729,9.47256 -48.62578,12.85488 -72.54785,7.19795c-13.92275,-3.29238 -29.45127,-9.73564 -37.30869,-22.46133c3.55166,2.18672 6.99111,4.33301 10.92188,5.80635c9.72686,3.6457 21.51475,4.20234 31.69365,2.45713c3.08086,-0.52822 6.09639,-1.36289 9.07881,-2.28779c2.13896,-0.66357 4.30283,-1.321 6.34688,-2.24414c0.21328,0.37266 0.44502,0.72451 0.71602,1.05791c1.6957,2.08682 4.63418,4.53018 7.42617,4.72441c1.59082,0.11074 3.02549,-0.47578 4.21729,-1.51055c3.50625,-3.04453 5.48262,-9.14561 6.71309,-13.52256c0.30615,-1.08896 0.70605,-2.25146 0.7752,-3.38262c2.67363,-2.76797 5.2292,-5.6543 7.8167,-8.50283c1.35908,-1.49619 2.74863,-3.51152 4.44756,-4.60371c0.10391,0.04043 0.20742,0.08203 0.31055,0.1248c2.40029,1.00166 3.54785,2.06836 4.54248,4.49121c-0.12568,-1.70859 -0.43916,-3.10518 -1.71357,-4.36406c-1.32217,-1.30576 -3.1582,-1.88584 -4.99189,-1.83457c-2.77002,0.07734 -5.06982,1.46484 -6.91201,3.43945c2.21455,-1.44697 4.21289,-2.08945 6.86309,-2.15098c-7.76924,9.30176 -13.69014,16.05762 -24.5458,21.94805c-14.24648,7.72998 -33.12773,10.21172 -48.71719,5.5623c-6.97178,-2.07949 -13.42764,-5.30801 -18.81243,-10.26387c-1.29715,-1.19355 -2.75104,-2.60156 -3.59631,-4.16338l0.2492,-0.29062c0.04611,-0.69434 -0.41575,-1.47656 -0.63732,-2.13896c-2.11652,-6.32549 -1.04476,-12.55488 1.89152,-18.40869c1.6921,1.70039 3.646,3.09668 5.94647,3.83848c4.28719,1.38223 8.94539,0.02842 12.80057,-1.99512c6.30322,-3.3085 12.68379,-9.90908 14.80957,-16.80938c1.02305,-3.32139 1.03301,-7.154 -0.59648,-10.27588c7.68691,0.52617 15.5915,4.1001 22.41621,7.49736c1.93652,0.96387 3.80713,2.07187 5.7709,2.97715c-6.80068,-5.19932 -15.11543,-9.13008 -23.4876,-10.94561c0.78809,-0.4374 1.58672,-0.86309 2.3584,-1.32861c12.64922,-7.62949 21.85254,-23.88369 27.88711,-36.94746c0.50215,-1.08662 2.98916,-6.49805 2.98564,-7.26064c-0.00059,-0.09492 -0.02578,-0.18779 -0.03867,-0.28154l0.13564,-0.02783l-0.13477,0.029l0.16992,-0.21797l-0.00527,0.07441c-0.37529,0.24023 -3.72656,7.63711 -4.29873,8.76768c-3.11279,6.15029 -6.79658,12.17637 -10.60811,17.91768c0.66738,-3.7708 0.72744,-7.80674 -0.40957,-11.49609c-0.96973,-3.14766 -2.88662,-6.36885 -5.90742,-7.92246c-1.99775,-1.02773 -3.90674,-1.08252 -6.029,-0.37529c-3.80684,1.26855 -6.36768,4.39893 -8.11963,7.8958c-2.89922,5.7876 -3.73652,13.39805 -1.66143,19.58203c0.74766,2.22686 2.14951,4.72148 4.35762,5.75947c2.28369,1.07344 4.18857,0.28887 6.36123,-0.52471c-2.11846,1.4874 -6.82998,5.27285 -9.10254,5.76943c-1.03799,0.22676 -2.06982,-0.31084 -3.07822,-0.18955c-0.5373,0.06475 -1.17158,0.39463 -1.67461,0.59766c-2.99062,-0.23496 -8.59834,-3.83174 -10.64297,-6.0665c1.07324,-4.48301 2.23984,-8.9415 3.4998,-13.37549c3.76787,-13.72764 7.11592,-22.43408 15.79629,-33.94307c1.94648,-2.58076 3.90791,-5.33291 6.22734,-7.59697c0.90264,0.29824 2.18848,-1.0752 2.89395,-1.64238c1.95205,-1.57031 3.85371,-3.2127 5.94023,-4.60576c4.55889,-3.04424 10.23838,-5.38975 15.51768,-6.8584c11.32969,-3.15117 21.92373,-3.19658 33.39023,-0.92813c5.12783,1.01455 10.61016,2.61064 15.18398,5.18789c-0.94893,4.50615 -1.46104,9.21709 -0.55049,13.77539z" id="Path 1" fill="#9fa8b5"/><path d="M1456.87412,710.05535c1.42617,0.08203 2.93086,0.12217 4.07725,1.1001c1.64326,1.40156 1.76426,4.25361 1.90195,6.24844c-4.34209,-0.9126 -8.29131,0.04014 -12.29004,1.74463l-0.15586,0.06504c-1.41357,0.57803 -2.69971,1.3957 -4.00811,2.17646l-0.1667,-0.12627c-0.03018,-0.14971 -0.04746,-0.20918 -0.05918,-0.35273c-0.17402,-2.15098 1.19033,-4.85449 2.5125,-6.49131c2.02676,-2.50957 5.01563,-4.00781 8.18818,-4.36436z" id="Path 1" fill="#020202"/><path d="M1510.41299,715.8951c0.48301,-0.05293 0.96738,-0.07344 1.45313,-0.06152c3.104,0.05889 6.57217,1.49736 8.70732,3.77256c2.69736,2.87432 3.29063,6.66797 3.17666,10.45928c-1.01191,-0.72344 -2.03359,-1.43301 -3.06504,-2.12871c-3.22559,-2.09004 -6.74912,-3.65889 -10.32012,-5.0543c-1.71914,-0.67178 -3.49014,-1.25303 -5.1624,-2.03584c1.1335,-2.20107 2.7917,-4.15312 5.21045,-4.95146z" id="Path 1" fill="#020202"/><path d="M1467.74824,790.46648c1.0459,-0.01992 1.91338,0.15088 2.83623,0.6627c2.21807,1.23018 3.55225,3.88711 4.19531,6.25518c1.01309,3.73154 0.87012,8.39854 -1.11563,11.79961c-1.06729,1.82783 -2.50254,2.91387 -4.54365,3.46025c-1.27295,-0.10693 -2.24297,-0.27715 -3.3457,-1.00078c-2.36602,-1.55303 -3.72598,-4.44551 -4.24102,-7.14727c-0.68437,-3.59062 -0.37383,-8.05225 1.74434,-11.14746c1.12383,-1.64238 2.53916,-2.52891 4.47012,-2.88223z" id="Path 1" fill="#020202"/><path d="M1467.66885,791.89676c0.7415,0.0208 1.37051,0.14473 2.02559,0.51035c2.01123,1.12266 3.14209,3.5127 3.71631,5.65488c0.86719,3.23467 0.74531,7.53545 -1.02979,10.46924c-0.82939,1.37109 -1.86006,2.28984 -3.42832,2.68008c-0.51475,-0.00293 -0.94102,-0.06562 -1.41621,-0.27891c-1.89639,-0.85107 -3.16318,-2.67686 -3.90264,-4.56123c-1.26094,-3.21416 -1.27529,-7.49912 0.12305,-10.67344c0.82764,-1.87852 2.02441,-3.05537 3.91201,-3.80098z" id="Path 1" fill="#424452"/><path d="M1561.13291,675.6244c0.37998,-0.04078 0.55107,-0.11988 0.90293,0.06164c-0.24902,1.84685 -0.65215,3.66853 -0.9123,5.51511c-1.01572,7.20527 -1.75459,15.67324 -6.36768,21.6c-3.45469,4.43789 -9.07412,7.61426 -14.44893,9.10107c-2.7999,0.77461 -5.63525,1.15371 -8.51045,1.50029c-0.24141,-0.01465 -0.40254,-0.04307 -0.62402,-0.1415c-0.13008,-0.29531 -0.21006,-0.5502 -0.26543,-0.86953c-1.21377,-7.00605 1.80527,-17.90625 5.8749,-23.59014c5.74512,-8.02471 14.94229,-11.60039 24.35098,-13.17694z" id="Path 1" fill="#020202"/><path d="M1560.81064,676.77688l0.14854,0.01729l0.0917,0.23921c-1.91865,8.09561 -1.61924,17.71582 -6.68467,24.73711c-3.79014,5.25352 -10.0251,8.40264 -16.22139,9.83232c-2.08594,0.48135 -4.24424,0.71543 -6.35947,1.04619c-0.24111,-0.07471 -0.12012,-0.00234 -0.30615,-0.2918c-0.5373,-6.12422 2.32061,-17.13193 5.60625,-22.12412c5.76621,-8.75977 13.95791,-11.44893 23.7252,-13.4562z" id="Path 1" fill="url(#color-6)"/><path d="M1506.6208,734.52029c2.12783,-0.13184 4.32275,0.42656 6.15645,1.50059c4.5082,2.64141 7.37578,7.70596 8.65107,12.64219c1.7915,6.93574 1.13965,14.67891 -2.52715,20.8957c6.6917,0.81328 13.84014,3.79746 18.79746,8.42373c-5.58604,-3.17051 -11.32031,-6.04658 -17.78145,-6.8543c-10.25625,-1.60342 -20.83975,0.93516 -30.00498,5.56436c2.30449,-2.00127 5.30947,-3.3665 8.06807,-4.63506c-3.7084,-3.28389 -5.3499,-7.99307 -5.85234,-12.80566c-0.70312,-6.73652 0.89121,-14.06777 5.22451,-19.39834c2.50957,-3.08672 5.26611,-4.93916 9.26836,-5.3332z" id="Path 1" fill="#020202"/><path d="M1504.05527,769.72078c-0.00381,-0.07529 -0.00469,-0.15088 -0.01143,-0.22588c-0.08174,-0.91143 -1.12705,-2.28691 -1.49736,-3.19131c-1.88086,-4.59316 -2.37656,-10.94971 0.75586,-15.15938c1.16777,-1.56943 3.02959,-2.9666 4.99277,-3.24932c1.57734,-0.22676 2.87842,0.32285 4.10039,1.28906c2.73135,2.16006 4.50557,6.49102 4.89902,9.89063c0.32578,2.81484 -0.07559,6.81709 -1.89814,9.11426c-0.52383,0.66006 -0.87246,0.89092 -1.71709,0.96182c-3.17402,0.26631 -6.2083,0.38203 -9.35449,0.99404z" id="Path 1" fill="#302a21"/><path d="M1504.96523,752.4784c0.27422,-0.00059 0.51475,0.01289 0.78457,0.07324c0.48164,0.10811 0.85371,0.46377 1.10361,0.8751c0.46992,0.77373 0.46055,1.75781 0.20361,2.60156c-0.27041,0.88887 -0.70811,1.34209 -1.50322,1.7874c-0.20098,-0.01055 -0.40049,-0.0332 -0.59854,-0.06797c-0.50244,-0.08701 -0.92988,-0.45703 -1.20938,-0.86895c-0.45645,-0.67412 -0.50068,-1.50322 -0.33135,-2.27871c0.21973,-1.00693 0.69287,-1.58467 1.55068,-2.12168z" id="Path 1" fill="#ffffff"/><path d="M1498.79531,771.64119c-2.34639,-1.73057 -3.7916,-4.44316 -4.68633,-7.16865c-2.10908,-6.42656 -1.71211,-14.15713 1.35996,-20.21367c1.86064,-3.66826 4.65908,-7.20645 8.71553,-8.48174c0.16133,-0.05078 0.32393,-0.09756 0.48779,-0.14033c0.16367,-0.04277 0.32832,-0.08135 0.49395,-0.11572c0.16562,-0.03457 0.33203,-0.06494 0.49922,-0.09111c0.16719,-0.02617 0.33496,-0.04814 0.50332,-0.06592c0.16816,-0.01797 0.33672,-0.03164 0.50566,-0.04102c0.16895,-0.00938 0.33809,-0.01455 0.50742,-0.01553c0.16914,-0.00098 0.33828,0.00225 0.50742,0.00967c0.16895,0.00762 0.3377,0.01934 0.50625,0.03516c0.16836,0.01602 0.33633,0.03613 0.50391,0.06035c0.16738,0.02422 0.33408,0.05264 0.5001,0.08525c0.16602,0.03262 0.33115,0.06943 0.49541,0.11045c0.16426,0.04082 0.32734,0.08574 0.48926,0.13477c0.16191,0.04902 0.32256,0.10205 0.48193,0.15908c0.15938,0.05703 0.31719,0.11797 0.47344,0.18281c0.15625,0.06484 0.31074,0.13359 0.46348,0.20625c0.15293,0.07266 0.30391,0.14902 0.45293,0.2291c4.17861,2.22715 6.98818,6.91465 8.29893,11.33057c2.19961,7.41123 1.43115,14.88281 -2.27197,21.63867c-0.8584,-0.04541 -1.71855,-0.13477 -2.5752,-0.20596c0.17129,-0.23555 0.33467,-0.47646 0.49014,-0.72275c0.15547,-0.24629 0.30283,-0.49746 0.44209,-0.75352c0.13906,-0.25586 0.26963,-0.51602 0.3917,-0.78047c0.12207,-0.26445 0.23545,-0.53262 0.34014,-0.80449c0.10449,-0.27188 0.2001,-0.54687 0.28682,-0.825c0.08672,-0.27793 0.16416,-0.5585 0.23232,-0.8417c0.06836,-0.2832 0.12744,-0.56836 0.17725,-0.85547c0.04961,-0.28691 0.08984,-0.5752 0.1207,-0.86484c0.4752,-4.19736 -0.72686,-8.92881 -3.40078,-12.23525c-1.39043,-1.71914 -3.41309,-3.2792 -5.68271,-3.46377c-1.7417,-0.1418 -3.41016,0.56221 -4.70479,1.69922c-2.64639,2.32412 -3.68848,6.04307 -3.87217,9.44912c-0.22207,4.12354 0.94307,8.32412 3.72686,11.43604l0.26953,0.42393c-1.87852,0.37148 -3.704,0.92607 -5.52949,1.49648z" id="Path 1" fill="#ffffff"/></g><path d="M1806,449" id="Path 1" fill="none" stroke="#000000" stroke-linecap="round" stroke-linejoin="round"/></g></g></g></g></svg>